<svg width="1100" height="735" viewBox="0 0 1100 735" fill="none" xmlns="http://www.w3.org/2000/svg">
<g clip-path="url(#clip0)">
<path d="M1019.73 273.728C978.099 110.042 834.265 -8.11652 665.435 -12.8558C576.18 -15.3613 482.258 14.2407 413.877 117.829C291.637 303.004 421.389 430.965 511.848 491.77C555.551 521.206 594.93 556.599 628.844 596.926C689.946 669.433 807.493 759.534 947.486 618.36C1048.95 516.036 1047.45 382.759 1019.73 273.728Z" fill="#F2F2F2"/>
<path d="M826.687 244.43V219.042C826.684 214.572 827.639 210.146 829.497 206.016C831.355 201.886 834.08 198.133 837.516 194.972C840.952 191.81 845.032 189.303 849.523 187.592C854.013 185.881 858.827 185 863.687 185C868.548 185 873.361 185.881 877.852 187.592C882.342 189.303 886.422 191.81 889.858 194.972C893.294 198.133 896.019 201.886 897.877 206.016C899.736 210.146 900.69 214.572 900.687 219.042V244.43C900.686 245.642 900.162 246.803 899.23 247.66C898.298 248.517 897.035 248.999 895.717 249H831.658C830.34 248.999 829.076 248.517 828.145 247.66C827.213 246.803 826.689 245.642 826.687 244.43V244.43Z" fill="#2F2E41"/>
<path d="M854.187 250C867.718 250 878.687 239.926 878.687 227.5C878.687 215.074 867.718 205 854.187 205C840.656 205 829.687 215.074 829.687 227.5C829.687 239.926 840.656 250 854.187 250Z" fill="#FFB7B7"/>
<path d="M821.687 215.537C821.695 209.032 824.538 202.795 829.592 198.195C834.645 193.595 841.497 191.007 848.644 191H853.731C860.878 191.007 867.73 193.595 872.783 198.195C877.837 202.795 880.679 209.032 880.687 215.537V216H869.939L866.272 206.656L865.539 216H859.984L858.135 211.285L857.764 216H821.687V215.537Z" fill="#2F2E41"/>
<path d="M886.687 737.892C972.844 737.892 1042.69 727.818 1042.69 715.392C1042.69 702.965 972.844 692.892 886.687 692.892C800.531 692.892 730.687 702.965 730.687 715.392C730.687 727.818 800.531 737.892 886.687 737.892Z" fill="#3F3D56"/>
<path d="M810 77.9991H0V569.785H810V77.9991Z" fill="#3F3D56"/>
<path d="M13.08 95.5992C16.3097 95.5992 18.9279 92.981 18.9279 89.7513C18.9279 86.5216 16.3097 83.9034 13.08 83.9034C9.8503 83.9034 7.23212 86.5216 7.23212 89.7513C7.23212 92.981 9.8503 95.5992 13.08 95.5992Z" fill="#6C63FF"/>
<path d="M28.0246 95.5992C31.2543 95.5992 33.8724 92.981 33.8724 89.7513C33.8724 86.5216 31.2543 83.9034 28.0246 83.9034C24.7949 83.9034 22.1767 86.5216 22.1767 89.7513C22.1767 92.981 24.7949 95.5992 28.0246 95.5992Z" fill="#6C63FF"/>
<path d="M42.9691 95.5992C46.1988 95.5992 48.817 92.981 48.817 89.7513C48.817 86.5216 46.1988 83.9034 42.9691 83.9034C39.7394 83.9034 37.1212 86.5216 37.1212 89.7513C37.1212 92.981 39.7394 95.5992 42.9691 95.5992Z" fill="#6C63FF"/>
<path d="M151.423 260.611C189.368 260.611 220.128 229.85 220.128 191.905C220.128 153.96 189.368 123.2 151.423 123.2C113.478 123.2 82.7177 153.96 82.7177 191.905C82.7177 229.85 113.478 260.611 151.423 260.611Z" fill="#F2F2F2"/>
<path d="M295.614 289.539H7.23212V299.483H295.614V289.539Z" fill="#6C63FF"/>
<path d="M295.614 384.461H7.23212V394.405H295.614V384.461Z" fill="#F2F2F2"/>
<path d="M295.614 412.486H7.23212V422.43H295.614V412.486Z" fill="#F2F2F2"/>
<path d="M295.614 440.51H7.23212V450.454H295.614V440.51Z" fill="#F2F2F2"/>
<path d="M295.614 468.535H7.23212V478.479H295.614V468.535Z" fill="#F2F2F2"/>
<path d="M295.614 496.559H7.23212V506.504H295.614V496.559Z" fill="#F2F2F2"/>
<path d="M295.614 524.584H7.23212V534.528H295.614V524.584Z" fill="#F2F2F2"/>
<path d="M801.864 122.296H341.719V124.104H801.864V122.296Z" fill="#6C63FF"/>
<path d="M801.864 140.376H341.719V142.184H801.864V140.376Z" fill="#6C63FF"/>
<path d="M801.864 158.457H341.719V160.265H801.864V158.457Z" fill="#6C63FF"/>
<path d="M801.864 176.537H341.719V178.345H801.864V176.537Z" fill="#6C63FF"/>
<path d="M801.864 194.617H341.719V196.425H801.864V194.617Z" fill="#6C63FF"/>
<path d="M801.864 212.698H341.719V214.506H801.864V212.698Z" fill="#6C63FF"/>
<path d="M801.864 230.778H341.719V232.586H801.864V230.778Z" fill="#6C63FF"/>
<path d="M801.864 248.858H341.719V250.666H801.864V248.858Z" fill="#6C63FF"/>
<path d="M801.864 266.939H341.719V268.747H801.864V266.939Z" fill="#6C63FF"/>
<path d="M801.864 285.019H341.719V286.827H801.864V285.019Z" fill="#6C63FF"/>
<path d="M801.864 303.099H341.719V304.908H801.864V303.099Z" fill="#6C63FF"/>
<path d="M380.592 277.787H349.855V285.019H380.592V277.787Z" fill="#6C63FF"/>
<path d="M430.312 260.611H399.576V267.843H430.312V260.611Z" fill="#6C63FF"/>
<path d="M480.033 224.45H449.297V231.682H480.033V224.45Z" fill="#6C63FF"/>
<path d="M529.754 241.626H499.018V248.858H529.754V241.626Z" fill="#6C63FF"/>
<path d="M579.475 206.37H548.739V213.602H579.475V206.37Z" fill="#6C63FF"/>
<path d="M629.196 241.626H598.46V248.858H629.196V241.626Z" fill="#6C63FF"/>
<path d="M678.917 188.289H648.181V195.521H678.917V188.289Z" fill="#6C63FF"/>
<path d="M728.638 153.033H697.902V160.265H728.638V153.033Z" fill="#6C63FF"/>
<path d="M778.359 171.113H747.623V178.345H778.359V171.113Z" fill="#6C63FF"/>
<path opacity="0.1" d="M747.623 176.537V249.31H728.638V156.649H697.902V249.31H678.917V191.905H648.181V249.31H579.475V209.986H548.739V249.31H498.566V266.939H480.033V228.066H449.297V266.939H399.576V285.019H349.855V304.908H399.576H529.754H548.739H579.475H747.623H778.359V285.019V176.537H747.623Z" fill="#6C63FF"/>
<path d="M468.542 370.923C468.406 369.846 468.13 368.791 467.722 367.785C467.67 367.595 467.579 367.418 467.455 367.265C467.331 367.112 467.176 366.986 467 366.896C466.766 366.835 466.52 366.832 466.284 366.888L462.606 367.451C462.298 367.465 462.003 367.579 461.767 367.777C461.288 368.281 461.759 369.092 461.745 369.787C461.699 370.176 461.534 370.542 461.272 370.833C461.01 371.125 460.663 371.327 460.281 371.413C459.512 371.568 458.719 371.558 457.954 371.384L452.811 370.585C454.326 370.101 455.674 369.202 456.702 367.988C457.379 367.187 457.739 365.69 456.761 365.31C456.47 365.23 456.167 365.206 455.867 365.238C453.537 365.256 451.704 363.311 449.522 362.491C448.126 362.001 446.61 361.964 445.192 362.387C443.774 362.81 442.526 363.67 441.626 364.845L444.366 364.977C444.624 364.963 444.879 365.031 445.096 365.172C445.696 365.665 444.95 366.613 445.034 367.385C445.144 368.389 446.477 368.603 447.481 368.705C448.486 368.806 449.76 369.622 449.277 370.509C444.228 372.248 439.09 367.109 433.788 367.742C432.461 367.997 431.152 368.337 429.868 368.761C421.864 370.786 413.59 365.383 405.413 366.527C403.595 366.837 401.809 367.308 400.075 367.935C398.931 368.211 397.873 368.763 396.993 369.543C396.566 369.945 396.296 370.486 396.232 371.07C396.168 371.653 396.313 372.24 396.642 372.725C394.531 372.899 392.406 372.697 390.365 372.129C390.917 372.435 391.376 372.885 391.694 373.43C392.012 373.976 392.177 374.597 392.173 375.228C388.876 375.766 385.667 376.744 382.631 378.137C383.198 379.08 383.86 379.961 384.606 380.768L380.433 383.449C380.773 383.559 381.084 383.744 381.343 383.99C381.602 384.236 381.802 384.538 381.929 384.872C382.055 385.206 382.105 385.564 382.075 385.92C382.044 386.276 381.934 386.62 381.752 386.928C383.214 386.278 384.12 384.595 385.683 384.254C386.732 384.144 387.79 384.349 388.721 384.843C389.655 385.337 390.726 385.506 391.767 385.323C392.772 385.027 393.514 383.723 392.875 382.892C397.174 381.638 401.617 380.944 406.094 380.827C406.439 380.784 406.79 380.85 407.095 381.017C407.678 381.421 407.525 382.295 407.493 383.003C407.462 383.712 408.014 384.643 408.647 384.324C407.902 384.97 408.539 386.186 409.254 386.866C409.969 387.545 410.831 388.483 410.393 389.366C410.279 389.597 410.085 389.782 409.975 390.014C409.651 390.701 410.166 391.502 410.773 391.959C411.439 392.325 412.038 392.801 412.547 393.365C412.969 393.997 412.777 395.103 412.023 395.191L409.878 392.468C409.145 393.228 408.643 394.18 408.429 395.214C409.531 396.188 410.22 397.547 410.352 399.013C410.484 400.478 410.051 401.939 409.141 403.095C408.061 404.138 406.865 405.053 405.577 405.824C404.934 406.216 404.391 406.749 403.988 407.385C403.585 408.02 403.334 408.739 403.254 409.487C403.26 412.081 403.048 414.49 404.02 416.895C405.812 421.329 407.881 425.646 410.215 429.82C410.828 430.916 411.62 432.118 412.861 432.307C411.292 428.487 409.88 424.607 408.624 420.669C409.029 420.61 409.441 420.646 409.83 420.773C410.219 420.899 410.574 421.114 410.867 421.399C411.153 422.014 411.301 422.683 411.302 423.36C411.459 424.006 411.72 424.621 412.076 425.181L419.569 438.529C420.067 439.707 420.958 440.676 422.09 441.271C422.886 441.419 423.667 441.635 424.426 441.916C424.974 442.239 425.342 442.813 425.901 443.118C427.479 443.979 429.674 442.327 431.149 443.355C431.528 443.702 431.888 444.069 432.228 444.453C433.59 445.633 435.825 444.844 437.398 445.724C438.338 446.416 439.059 447.363 439.478 448.453C440.832 451.028 443.023 453.551 445.925 453.756C446.838 453.718 447.752 453.75 448.659 453.851C449.55 454.053 450.428 454.831 450.284 455.734C450.039 457.281 450.804 458.976 450.598 460.529C450.224 463.358 446.211 464.602 445.866 467.435C445.868 468.059 445.833 468.683 445.761 469.303C445.58 470.047 445.022 470.653 444.823 471.392C444.447 472.794 445.451 474.189 446.554 475.132C447.657 476.075 448.973 476.888 449.577 478.208C450.214 479.604 449.901 481.231 450.108 482.751C450.561 486.069 453.427 488.529 456.377 490.115C457.32 490.512 458.158 491.125 458.822 491.905C459.581 492.999 459.505 494.441 459.759 495.749C460.38 498.951 463.075 501.589 463.152 504.85C463.206 507.168 461.918 509.27 461.148 511.457C460.427 513.552 460.166 515.778 460.383 517.984C460.6 520.189 461.29 522.322 462.407 524.236C463.044 525.169 463.603 526.153 464.078 527.178C464.805 529.059 464.569 531.197 465.239 533.098C466.125 535.612 468.559 537.689 468.326 540.344C469.432 542.639 471.872 543.767 474.326 544.45L478.724 545.674C479.549 545.973 480.432 546.076 481.304 545.975C481.737 545.913 482.137 545.705 482.437 545.386C482.738 545.067 482.921 544.656 482.957 544.22C480.766 543.88 478.668 543.091 476.797 541.902C475.019 540.587 473.801 538.247 474.476 536.142C474.788 535.165 475.454 534.038 474.821 533.231C474.459 532.769 473.797 532.649 473.388 532.227C473.127 531.851 472.99 531.402 472.997 530.944C473.004 530.485 473.155 530.041 473.428 529.673C473.987 528.948 474.428 528.139 474.733 527.275C474.826 526.774 474.764 526.255 474.554 525.79C474.345 525.325 473.998 524.935 473.56 524.673C474.376 524.365 475.117 523.889 475.737 523.276C476.041 522.963 476.241 522.565 476.31 522.134C476.379 521.704 476.314 521.263 476.124 520.871C477.461 521.041 479.04 521.124 479.918 520.101C480.22 519.654 480.412 519.142 480.477 518.607C480.543 518.072 480.48 517.528 480.294 517.022C479.913 516.015 479.658 514.965 479.534 513.895C482.619 514.042 485.71 513.937 488.778 513.582C488.335 512.088 487.327 510.825 485.968 510.062C487.357 509.827 488.623 508.163 489.062 506.824C489.436 505.458 489.455 504.019 489.118 502.644C489.014 502.288 488.999 501.911 489.076 501.548C489.299 501.07 489.69 500.692 490.176 500.485L497.072 496.524C497.484 496.318 497.857 496.043 498.175 495.71C498.484 495.245 498.669 494.708 498.712 494.151C498.755 493.595 498.655 493.036 498.421 492.529C497.944 491.521 497.573 490.467 497.316 489.383C496.89 486.077 500.429 483.704 501.623 480.592C502.031 479.347 502.252 478.048 502.278 476.738C502.376 475.336 502.383 473.708 501.307 472.804C500.275 471.939 498.663 472.132 497.583 471.326C496.594 470.588 496.252 469.154 495.171 468.557C494.189 468.016 492.958 468.36 491.866 468.105C489.943 467.657 488.732 465.44 486.769 465.235C485.661 465.119 484.406 465.661 483.498 465.016C482.698 464.447 482.666 463.304 482.514 462.335C482.247 460.827 481.524 459.438 480.444 458.354C479.363 457.27 477.976 456.543 476.47 456.271C475.327 456.088 474.084 456.158 473.112 455.53C472.128 454.894 471.677 453.704 470.904 452.824C469.658 451.405 467.695 450.9 465.857 450.468L458.38 448.711C457.053 448.399 455.342 448.233 454.63 449.396C454.419 449.838 454.27 450.308 454.186 450.791C453.919 451.665 453.382 452.432 452.652 452.982C451.922 453.531 451.036 453.835 450.122 453.85C449.496 452.781 448.481 451.995 447.289 451.657C446.513 451.526 445.747 451.344 444.996 451.111C444.602 450.919 444.252 450.649 443.966 450.316C443.68 449.984 443.466 449.597 443.335 449.179C443.204 448.76 443.16 448.32 443.205 447.884C443.251 447.448 443.384 447.026 443.598 446.644C444.03 445.876 444.196 444.988 444.072 444.117C443.948 443.245 443.541 442.439 442.913 441.821C442.236 441.298 441.462 440.914 440.635 440.69C439.809 440.466 438.946 440.408 438.098 440.518C437.651 439.544 438.398 438.445 439.202 437.737C440.007 437.028 440.984 436.332 441.159 435.275C441.435 433.612 439.312 432.348 437.701 432.844C436.09 433.34 435.061 434.905 434.381 436.448C434.055 437.36 433.605 438.222 433.044 439.012C432.758 439.403 432.369 439.708 431.92 439.892C431.471 440.075 430.98 440.131 430.501 440.053C429.174 439.714 428.662 438.138 428.368 436.8C427.896 435.022 427.658 433.19 427.66 431.35C427.672 429.491 428.409 427.711 429.715 426.388C431.921 424.363 435.304 424.561 438.281 424.884C437.961 424.461 437.807 423.935 437.848 423.405C437.889 422.876 438.123 422.38 438.504 422.011C438.901 421.658 439.378 421.407 439.894 421.28C440.41 421.154 440.95 421.155 441.465 421.283C442.362 421.47 443.17 421.953 443.759 422.655C444.605 423.686 444.845 425.079 445.485 426.249C446.124 427.42 447.562 428.418 448.739 427.79C449.755 427.248 449.916 425.838 449.663 424.715C449.264 423.634 449.029 422.5 448.965 421.349C449.14 419.158 451.411 417.839 453.416 416.936C455.42 416.034 457.715 414.82 458.033 412.645C458.044 412.219 458.124 411.798 458.271 411.398C458.493 411.045 458.802 410.754 459.168 410.554C465.018 406.688 470.966 402.774 477.652 400.662C478 400.552 478.041 400.674 478.395 400.588C478.892 400.301 478.563 399.508 478.087 399.188C477.611 398.869 476.976 398.624 476.855 398.063C476.766 397.652 477.009 397.247 477.072 396.831C477.088 396.579 477.042 396.328 476.938 396.098C476.834 395.868 476.676 395.668 476.476 395.514C476.277 395.36 476.043 395.257 475.794 395.215C475.546 395.173 475.291 395.192 475.051 395.271C474.514 394.56 475.577 393.734 476.436 393.497C479.017 392.787 481.666 392.354 484.338 392.206C484.647 392.157 484.963 392.211 485.237 392.359C485.434 392.549 485.55 392.806 485.564 393.078C485.578 393.351 485.487 393.618 485.311 393.827C484.943 394.23 484.538 394.598 484.101 394.925C483.668 395.346 483.36 395.879 483.209 396.465C483.058 397.05 483.07 397.666 483.245 398.245C484.64 398.954 486.157 399.685 487.702 399.435C489.247 399.185 490.619 397.449 489.892 396.062C489.216 394.771 487.185 394.48 486.835 393.065C486.426 391.408 488.772 389.934 488.243 388.312C488.012 387.601 487.303 387.182 486.76 386.669C486.118 386.04 485.681 385.231 485.507 384.35C485.333 383.468 485.43 382.554 485.785 381.728C484.899 381.884 483.989 381.825 483.132 381.556C482.274 381.288 481.493 380.818 480.854 380.185C479.674 378.995 478.734 377.117 477.059 377.17C475.522 377.219 474.198 379.012 472.761 378.465C472.408 378.331 472.035 378.057 471.692 378.217C471.58 378.29 471.486 378.388 471.417 378.502C471.348 378.617 471.306 378.746 471.294 378.879C470.928 380.625 471.557 382.614 470.605 384.123C469.569 385.765 467.174 385.993 465.919 387.473C465.237 388.277 464.973 389.36 464.347 390.207C463.721 391.054 462.391 391.593 461.639 390.855C462.009 390.095 462.11 389.233 461.926 388.409C461.741 387.584 461.283 386.847 460.626 386.317C459.928 385.861 459.175 385.496 458.386 385.228C457.505 384.854 456.666 384.387 455.885 383.833C455.493 383.597 455.175 383.257 454.966 382.851C454.801 382.342 454.823 381.791 455.029 381.297C455.41 380.204 456.083 379.236 456.974 378.497C457.865 377.759 458.941 377.278 460.085 377.106C461.086 376.97 462.251 377.018 462.914 376.255C463.264 375.851 463.448 375.241 463.957 375.077C464.282 375.012 464.62 375.054 464.92 375.196L468.655 376.511C469.072 376.699 469.531 376.775 469.986 376.731C470.212 376.701 470.418 376.586 470.563 376.41C470.707 376.234 470.78 376.01 470.766 375.783C470.647 375.162 469.692 374.865 469.779 374.239C469.828 374.036 469.937 373.853 470.092 373.713C471.44 372.278 473.089 371.159 474.92 370.436C476.752 369.713 478.72 369.404 480.685 369.53C481.157 370.305 480.411 371.222 479.79 371.883C479.17 372.544 478.671 373.725 479.422 374.234C479.729 374.391 480.071 374.468 480.416 374.458C481.336 374.582 482.23 374.854 483.064 375.261C484.355 375.823 485.621 376.437 486.862 377.105C486.683 376.295 486.716 375.452 486.958 374.659C487.093 374.268 487.369 373.942 487.732 373.745C488.095 373.547 488.519 373.492 488.92 373.591C489.663 373.879 490.043 374.861 490.834 374.951C491.889 375.072 492.305 373.513 491.864 372.547C491.424 371.581 490.551 370.773 490.479 369.714C490.43 368.999 490.701 368.113 490.131 367.68C489.928 367.55 489.697 367.469 489.457 367.444L475.206 364.822C474.36 364.666 473.137 364.785 473.099 365.645C473.079 366.125 473.507 366.599 473.317 367.041C473.115 367.511 472.449 367.468 471.964 367.635C471.602 367.802 471.303 368.081 471.113 368.431C470.922 368.782 470.85 369.184 470.907 369.579C471.039 370.366 471.344 371.114 471.799 371.769C470.872 371.382 469.469 371.31 468.542 370.923Z" fill="#F2F2F2"/>
<path d="M457.171 358.825C456.272 358.528 455.304 358.514 454.397 358.786C453.49 359.057 452.689 359.601 452.102 360.343C451.964 360.481 451.869 360.654 451.827 360.844C451.786 361.033 451.799 361.231 451.866 361.413C452.148 361.892 452.866 361.703 453.395 361.531C454.172 361.254 455.019 361.233 455.809 361.474C456.306 361.644 456.75 361.946 457.249 362.11C457.492 362.212 457.758 362.245 458.018 362.207C458.279 362.169 458.524 362.061 458.728 361.894C459.022 361.497 459.153 361.003 459.092 360.512C459.116 360.349 459.103 360.182 459.054 360.024C459.005 359.866 458.922 359.721 458.809 359.599C458.61 359.484 458.385 359.417 458.155 359.406C457.638 359.31 457.172 359.037 456.835 358.635" fill="#F2F2F2"/>
<path d="M462.31 357.394C462.108 357.384 461.908 357.425 461.727 357.513C461.547 357.602 461.392 357.736 461.278 357.902C461.164 358.069 461.095 358.261 461.076 358.462C461.058 358.662 461.092 358.864 461.175 359.048C461.793 359.216 462.438 359.258 463.072 359.172C463.388 359.122 463.683 358.981 463.919 358.764C464.155 358.548 464.322 358.267 464.398 357.956C463.651 358.092 462.881 357.944 462.237 357.543" fill="#F2F2F2"/>
<path d="M479.551 355.005C477.87 355.362 476.237 355.917 474.686 356.658C475.417 356.939 476.038 357.447 476.459 358.108C476.879 358.769 477.076 359.548 477.02 360.329C476.955 360.629 476.962 360.94 477.042 361.237C477.221 361.67 477.739 361.832 478.194 361.943C479.012 362.192 479.866 362.301 480.72 362.266C481.147 362.243 481.562 362.115 481.927 361.892C482.292 361.669 482.596 361.358 482.81 360.988C482.934 360.637 483.079 360.294 483.245 359.96C484.336 358.299 487.578 360.308 488.749 358.702C489.162 358.136 489.124 357.285 489.662 356.836C489.94 356.641 490.262 356.518 490.6 356.478C492.956 356.01 495.335 355.671 497.728 355.463C498.862 355.364 500.34 354.957 500.349 353.819C496.079 352.981 491.651 353.576 487.754 355.514C486.35 356.217 484.493 357.696 483.141 356.764C482.634 356.415 482.66 355.475 481.963 355.082C481.192 354.776 480.339 354.749 479.551 355.005V355.005Z" fill="#F2F2F2"/>
<path d="M493.516 357.617L495.52 358.002C495.151 357.985 494.783 358.048 494.44 358.185C494.097 358.322 493.788 358.531 493.532 358.798C493.276 359.064 493.08 359.382 492.957 359.73C492.833 360.078 492.786 360.449 492.817 360.817C494.694 361.444 496.741 360.834 498.718 360.917C500.696 361 502.996 362.413 502.659 364.363C502.557 364.953 502.216 365.542 502.393 366.113C502.584 366.486 502.811 366.839 503.07 367.167C503.23 367.575 503.274 368.019 503.196 368.45C503.118 368.881 502.922 369.282 502.629 369.608C502.104 370.307 501.399 370.864 500.938 371.607C499.792 373.455 500.443 375.843 501.126 377.907C501.323 378.687 501.687 379.414 502.194 380.04C503.205 381.115 504.852 381.208 506.328 381.23C507.402 381.245 508.632 381.192 509.312 380.36C510.198 379.274 509.578 377.579 510.162 376.304C510.692 375.146 512.043 374.649 513.267 374.297C515.534 373.741 517.756 373.016 519.914 372.127C522.546 370.917 525.006 369.03 527.899 368.874C528.711 368.907 529.525 368.85 530.324 368.704C530.723 368.621 531.083 368.408 531.348 368.099C531.613 367.79 531.768 367.401 531.79 366.995C531.739 366.302 531.153 365.793 530.695 365.271C530.237 364.749 529.878 363.946 530.298 363.394L537.882 361.977C537.344 360.512 536.925 358.583 538.16 357.63C538.606 357.286 539.203 357.148 539.582 356.732C539.856 356.338 539.964 355.852 539.885 355.379C539.806 354.906 539.545 354.483 539.157 354.199C538.355 353.662 537.411 353.376 536.445 353.377C533.113 353.177 529.772 353.207 526.444 353.466L506.908 354.537C505.553 354.481 504.197 354.619 502.881 354.946C501.952 355.468 500.979 355.909 499.975 356.264C497.825 356.715 495.46 356.41 493.516 357.617Z" fill="#F2F2F2"/>
<path d="M529.426 373.461C529.222 373.429 529.013 373.476 528.843 373.593C528.73 373.717 528.663 373.876 528.653 374.043C528.524 374.781 528.678 375.541 529.085 376.17C529.292 376.479 529.578 376.726 529.913 376.887C530.248 377.048 530.62 377.116 530.991 377.084C531.893 376.969 532.559 376.199 533.388 375.823C534.667 375.244 540.099 374.342 536.342 372.313C535.047 371.613 534.21 372.231 533.19 372.691C532.029 373.285 530.728 373.551 529.426 373.461V373.461Z" fill="#F2F2F2"/>
<path d="M562.335 356.471C561.896 356.65 561.529 356.969 561.291 357.379C561.181 357.587 561.156 357.83 561.22 358.056C561.284 358.282 561.432 358.475 561.635 358.595C561.798 358.655 561.972 358.682 562.146 358.676L563.93 358.73C564.688 358.752 565.635 358.914 565.838 359.644C565.989 360.186 565.651 360.883 566.059 361.271C566.235 361.406 566.445 361.488 566.666 361.507C567.254 361.658 567.867 361.678 568.464 361.565C569.761 361.217 569.08 360.425 569.488 359.72C570.114 358.64 570.005 359.294 571.108 358.675C571.921 358.218 572.973 357.39 572.294 356.225C571.113 354.201 564.078 355.601 562.335 356.471Z" fill="#F2F2F2"/>
<path d="M597.543 355.453L596.507 355.591C594.162 355.837 591.843 356.281 589.573 356.919C590.547 357.304 591.568 357.554 592.61 357.664C593.183 357.692 593.752 357.773 594.311 357.906C595.305 358.202 596.306 358.965 597.266 358.574C597.861 358.331 598.055 357.712 598.548 357.383C598.889 357.156 600.18 356.789 600.325 356.56C601.492 354.71 598.44 355.333 597.543 355.453Z" fill="#F2F2F2"/>
<path d="M602.092 360.161C600.708 360.934 599.424 361.874 598.269 362.96C597.999 363.157 597.776 363.411 597.614 363.703C597.451 363.996 597.354 364.32 597.329 364.653C597.388 365.539 598.332 366.053 599.149 366.399L602.461 367.801C602.862 367.234 602.495 366.453 602.079 365.896C601.664 365.34 601.171 364.696 601.354 364.027C601.564 363.263 602.495 363.002 603.276 362.871C604.549 362.656 607.983 362.674 607.57 360.622C607.084 358.205 603.369 359.446 602.092 360.161Z" fill="#F2F2F2"/>
<path d="M601.426 496.944C601.244 497.393 601.167 497.877 601.202 498.36C601.236 498.843 601.381 499.311 601.626 499.729C601.961 500.157 602.412 500.479 602.926 500.657C603.44 500.834 603.994 500.86 604.522 500.73C605.577 500.449 606.517 499.844 607.21 499.001C607.844 498.294 608.366 497.495 608.757 496.629C609.302 495.281 609.687 493.874 609.903 492.435L610.931 487.037C611.161 485.831 611.152 482.132 608.935 483.337C608.329 483.666 606.926 486.266 606.292 487.003C605.148 488.331 604.996 489.62 604.394 491.23C603.639 493.245 602.123 494.925 601.426 496.944Z" fill="#F2F2F2"/>
<path d="M718.539 524.568C717.814 524.285 717.11 523.95 716.432 523.565C715.753 525.432 715.392 527.4 715.364 529.386L720.329 526.577C721.076 526.154 721.922 525.567 721.906 524.709C721.913 524.603 721.891 524.497 721.843 524.403C721.795 524.308 721.722 524.228 721.632 524.172C721.522 524.128 721.401 524.114 721.284 524.131C720.557 524.263 719.85 524.49 719.182 524.807C718.847 524.963 718.481 525.045 718.111 525.047C717.741 525.049 717.375 524.971 717.038 524.818" fill="#F2F2F2"/>
<path d="M744.73 526.236C744.185 526.384 743.653 526.575 743.138 526.807C741.998 527.387 741.223 528.488 740.198 529.252C739.178 529.93 738.057 530.444 736.876 530.774C736.805 530.86 736.754 530.961 736.724 531.07C736.695 531.178 736.689 531.291 736.706 531.402C736.724 531.513 736.765 531.619 736.826 531.712C736.887 531.806 736.968 531.886 737.062 531.947C737.46 532.173 737.917 532.276 738.374 532.242C739.577 532.372 740.794 532.185 741.902 531.698C742.497 531.313 743.053 530.871 743.563 530.38C744.843 529.404 746.249 528.608 747.745 528.015C748.279 527.813 748.772 527.518 749.202 527.144C750.124 526.236 750.189 524.835 748.86 524.526C747.786 524.277 745.752 525.905 744.73 526.236Z" fill="#F2F2F2"/>
<path d="M756.302 518.677C756.361 518.052 756.278 517.422 756.059 516.834C755.839 516.246 755.489 515.716 755.035 515.283C755.14 516.536 754.878 517.793 754.28 518.898C753.779 519.635 752.994 520.132 752.445 520.834C752.138 521.156 751.954 521.576 751.926 522.021C751.899 522.465 752.03 522.905 752.297 523.262C752.708 523.575 753.209 523.748 753.726 523.755C755.007 523.906 756.49 523.99 757.389 523.064C757.879 522.559 758.118 521.81 758.716 521.439C758.939 521.345 759.138 521.203 759.299 521.022C759.546 520.63 759.153 520.112 758.711 519.971C758.27 519.829 757.783 519.896 757.339 519.761C756.895 519.627 756.487 519.128 756.715 518.724" fill="#F2F2F2"/>
<path d="M735.735 472.853C735.063 473.017 734.366 473.058 733.68 472.974C732.571 472.621 731.561 472.014 730.73 471.2C728.541 469.533 725.88 468.603 723.129 468.544C720.627 468.497 718.101 469.175 715.644 468.702C715.763 469.141 715.982 469.546 716.284 469.886C716.586 470.226 716.963 470.492 717.384 470.663C718.199 471.061 719.099 471.261 719.919 471.652C721.231 472.282 722.272 473.365 722.85 474.701C723.055 475.339 723.333 475.952 723.68 476.525C724.153 477.022 724.74 477.396 725.391 477.614C726.041 477.832 726.735 477.888 727.412 477.776C729.194 477.659 731.055 477.146 732.713 477.81C733.909 478.47 735 479.306 735.947 480.291C737.006 481.154 738.498 481.795 739.713 481.172C738.45 480.763 737.351 479.961 736.576 478.883C735.801 477.806 735.391 476.508 735.405 475.181C736.598 475.291 740.033 475.248 739.848 473.222C739.691 471.505 736.759 472.668 735.735 472.853Z" fill="#F2F2F2"/>
<path d="M720.135 486.825C720.346 485.663 721.504 484.638 721.144 483.514C720.972 483.142 720.693 482.831 720.342 482.621C719.991 482.41 719.585 482.31 719.177 482.334C718.361 482.315 717.559 482.558 716.743 482.581C716.212 482.552 715.679 482.56 715.149 482.603C713.529 482.87 712.531 484.567 711.004 485.171C710.037 485.413 709.057 485.596 708.068 485.722C705.876 486.298 704.49 488.369 702.958 490.038C700.483 492.724 697.258 494.604 693.702 495.436C692.428 495.586 691.205 496.025 690.126 496.718C688.815 497.79 688.492 499.627 688.2 501.295C687.394 505.903 686.162 510.425 684.52 514.805L689.723 515.47C690.705 515.665 691.716 515.651 692.691 515.427C693.384 515.165 694.04 514.816 694.643 514.387C696.961 512.948 699.554 512.012 702.256 511.639C703.615 511.384 705.016 511.482 706.326 511.924C706.977 512.154 707.552 512.558 707.99 513.091C708.427 513.624 708.711 514.267 708.809 514.95C709.362 514.778 709.952 514.759 710.514 514.896C711.077 515.033 711.592 515.32 712.004 515.727C712.819 516.557 713.353 517.622 713.53 518.772C713.667 519.484 713.804 520.337 714.465 520.636C715.003 520.879 715.622 520.617 716.211 520.57C718.212 520.41 719.872 522.742 721.838 522.341C723.947 521.91 724.465 518.752 726.522 518.119C727.704 517.755 729.361 518.197 729.927 517.098C730.426 516.129 729.431 515.011 729.533 513.927C729.66 512.591 731.235 512.024 732.45 511.454C734.508 510.391 736.083 508.582 736.854 506.397C737.624 504.212 737.532 501.816 736.595 499.697C735.393 497.234 733.027 495.295 732.591 492.59C732.254 490.508 733.075 488.081 731.748 486.442C731.073 485.609 729.93 485.149 729.528 484.154C729.373 483.498 729.276 482.83 729.241 482.156C729.104 481.495 728.527 480.803 727.874 480.975C725.979 481.472 725.374 487.328 724.359 488.751C724.047 489.212 723.582 489.548 723.046 489.699C722.51 489.85 721.938 489.806 721.432 489.575C720.925 489.344 720.517 488.941 720.28 488.437C720.042 487.934 719.991 487.363 720.135 486.825V486.825Z" fill="#F2F2F2"/>
<path d="M685.095 475.066C684.466 474.814 683.771 474.778 683.119 474.965C682.499 475.224 682.136 476.136 682.634 476.588C686.528 476.322 690.437 476.398 694.317 476.814C698.769 477.424 703.176 478.935 707.647 478.49C705.093 477.737 702.496 477.134 699.871 476.686L695.494 475.85C694.319 475.604 693.133 475.42 691.939 475.3C689.441 475.094 687.551 475.754 685.095 475.066Z" fill="#F2F2F2"/>
<path d="M688.997 461.492C688.673 461.465 688.273 461.442 688.105 461.72C687.945 461.986 688.129 462.337 688.043 462.635C687.925 463.042 687.392 463.146 686.972 463.091C686.565 462.966 686.129 462.971 685.725 463.105C685.536 463.234 685.394 463.421 685.321 463.637C685.247 463.853 685.245 464.088 685.316 464.305C685.468 464.737 685.715 465.129 686.037 465.454C686.587 466.148 687.215 466.777 687.907 467.329C689.246 468.318 691.061 468.795 691.905 470.23C692.024 470.508 692.206 470.754 692.439 470.949C692.661 471.038 692.902 471.072 693.14 471.048C693.379 471.024 693.608 470.943 693.808 470.811L695.336 470.112C695.612 470.013 695.857 469.846 696.051 469.626C696.183 469.363 696.238 469.068 696.21 468.775C696.182 468.481 696.072 468.202 695.892 467.968C695.527 467.503 695.315 466.935 695.287 466.344C695.399 465.301 696.741 464.902 697.293 464.009C697.849 463.109 697.487 461.949 697.551 460.893C697.626 459.659 698.402 458.052 697.153 457.129C696.092 456.345 695.078 457.07 694.316 457.936C692.71 459.761 691.95 461.738 688.997 461.492Z" fill="#F2F2F2"/>
<path d="M698.275 443.04C698.797 444.04 699.885 444.636 700.454 445.609C701.071 446.664 701.001 448.026 701.67 449.049C702.356 450.098 703.738 450.654 704.123 451.847C704.543 453.15 703.59 454.733 704.35 455.871C704.492 456.057 704.67 456.211 704.875 456.325C705.08 456.438 705.306 456.508 705.539 456.529C705.771 456.55 706.006 456.523 706.228 456.449C706.45 456.375 706.654 456.256 706.827 456.099C707.148 455.75 707.319 455.289 707.305 454.816C707.291 454.342 707.093 453.892 706.752 453.563C706.302 453.153 705.656 452.975 705.28 452.496C705.084 452.219 704.954 451.902 704.899 451.567C704.694 450.603 704.727 449.603 704.994 448.654C705.095 448.413 705.12 448.148 705.068 447.892C704.898 447.401 704.232 447.366 703.765 447.138C702.704 446.619 702.729 445.121 702.915 443.955C702.791 444.731 700.025 443.41 699.735 442.97C699.16 442.096 699.473 440.411 699.359 439.445C698.755 439.794 698.307 440.36 698.106 441.028C697.905 441.696 697.965 442.416 698.275 443.04V443.04Z" fill="#F2F2F2"/>
<path d="M670.404 458.414C669.893 457.842 669.124 457.244 668.44 457.589C668.194 457.749 668.014 457.991 667.929 458.272C667.845 458.552 667.862 458.854 667.978 459.123C668.228 459.655 668.612 460.112 669.092 460.451C670.579 461.551 671.985 462.756 673.3 464.057C675.527 466.504 676.707 469.807 679.129 472.062C679.616 472.585 680.261 472.934 680.965 473.055C681.316 473.103 681.673 473.017 681.965 472.816C682.257 472.614 682.464 472.311 682.544 471.965C682.536 471.673 682.467 471.386 682.341 471.123C682.214 470.859 682.034 470.625 681.811 470.436C680.871 469.413 679.84 468.471 678.952 467.401C678.542 466.991 678.284 466.452 678.221 465.875C678.217 465.299 678.742 464.696 679.3 464.839C678.621 464.666 678.118 463.535 677.122 463.323C676.29 463.145 676.088 463.66 675.098 463.235C673.209 462.425 671.727 459.895 670.404 458.414Z" fill="#F2F2F2"/>
<path d="M714.792 402.754C714.25 402.593 713.717 402.403 713.196 402.184C711.793 401.763 709.937 402.794 710.124 404.246C710.248 405.211 711.147 405.862 711.643 406.699C711.946 407.355 712.115 408.065 712.141 408.787C712.168 409.509 712.05 410.229 711.795 410.905C711.701 411.335 711.52 411.742 711.265 412.102C710.908 412.481 710.481 412.788 710.008 413.006C708.114 414.068 706.443 415.487 705.089 417.185C704.942 417.341 704.839 417.535 704.792 417.745C704.725 418.235 705.218 418.592 705.497 419.001C706.116 419.91 705.668 421.132 705.73 422.23C705.72 422.385 705.75 422.54 705.818 422.681C705.885 422.821 705.987 422.941 706.114 423.031C706.487 423.221 706.929 422.899 707.132 422.532C707.803 421.316 707.297 419.365 708.556 418.778C708.795 418.667 709.083 418.621 709.242 418.411C709.494 418.08 709.251 417.588 709.379 417.191C709.571 416.596 710.385 416.569 711.01 416.595C712.087 416.64 713.164 416.497 714.191 416.172C714.595 416.076 714.961 415.864 715.244 415.562C715.401 415.305 715.505 415.019 715.551 414.721C715.597 414.424 715.584 414.12 715.512 413.827C715.136 410.85 714.193 407.972 712.734 405.35C713.826 405.611 714.975 405.501 715.998 405.037C716.532 404.714 717.173 403.749 716.908 403.092C716.489 402.053 715.731 402.928 714.792 402.754Z" fill="#F2F2F2"/>
<path d="M573.004 419.128C573.196 419.828 573.207 420.565 573.034 421.269C572.936 421.617 572.712 421.916 572.407 422.109C572.101 422.302 571.735 422.375 571.379 422.315C570.842 422.152 570.532 421.613 570.152 421.202C568.034 418.915 563.256 420.239 561.947 417.41C561.413 416.256 561.776 414.873 561.412 413.654C561.182 412.95 560.725 412.342 560.112 411.926C559.499 411.509 558.766 411.308 558.026 411.354C557.352 411.452 556.695 411.648 556.078 411.936C551.941 413.593 547.599 414.679 543.169 415.164C542.328 415.216 541.495 415.367 540.689 415.616C538.914 416.433 537.507 417.883 536.743 419.682C535.995 421.466 535.083 423.177 534.021 424.794C532.664 426.311 531.11 427.639 529.399 428.742C528.772 429.146 528.25 429.694 527.875 430.34C527.582 431.095 527.477 431.909 527.569 432.714L527.902 442.502C527.856 443.765 528.081 445.023 528.562 446.192C529.266 447.599 530.656 448.52 531.62 449.763C532.604 451.04 533.117 452.618 533.071 454.23C533.051 454.878 532.986 455.644 533.491 456.051C533.798 456.25 534.157 456.354 534.523 456.348L547.764 457.432C550.093 457.622 552.674 457.936 554.194 459.71C554.912 460.548 555.489 461.752 556.588 461.842C557.059 461.815 557.528 461.751 557.99 461.649C558.587 461.673 559.169 461.851 559.676 462.168C560.184 462.484 560.6 462.927 560.884 463.453C561.883 464.969 562.336 466.78 562.17 468.587C562.061 469.722 561.71 470.825 561.634 471.962C561.345 476.29 565.014 480.049 565.085 484.386C565.127 486.936 563.916 489.32 562.735 491.581C564.641 494.467 563.08 498.311 563.839 501.685C564.559 504.887 567.228 507.393 567.893 510.606C568.197 512.077 568.215 513.887 569.512 514.645C570.081 514.922 570.712 515.049 571.344 515.012C575.157 515.057 578.926 514.199 582.344 512.508C583.947 511.712 585.61 510.523 585.89 508.755C586.116 507.329 585.392 505.734 586.128 504.491C586.996 503.027 589.218 503.143 590.494 502.018C592.565 500.191 590.95 496.709 591.789 494.078C592.543 491.714 595.139 490.458 596.426 488.336C596.932 487.423 597.296 486.439 597.504 485.416C598.093 482.971 598.46 480.478 598.6 477.968C598.634 476.442 598.747 474.919 598.937 473.406C600.324 464.786 608.845 459.015 611.612 450.735C611.876 449.944 612 448.891 611.296 448.443C610.879 448.244 610.406 448.195 609.957 448.303L603.853 449.073C603.103 449.236 602.322 449.191 601.595 448.943C601.24 448.803 600.953 448.529 600.799 448.18C600.644 447.831 600.633 447.435 600.769 447.078C601.806 445.2 599.674 442.827 598.726 440.903C596.175 435.721 593.137 430.794 589.652 426.188C589.429 425.951 589.29 425.647 589.255 425.324L590.987 425.382C590.402 423.283 589.437 420.987 587.399 420.22C586.211 419.897 584.97 419.824 583.752 420.004C580.149 420.076 576.548 419.783 573.004 419.128Z" fill="#F2F2F2"/>
<path d="M583.755 371.844C584.567 372.924 585.723 373.693 587.032 374.024C589.38 374.324 591.068 371.897 592.142 369.788C592.182 370.326 592.43 370.827 592.833 371.184C593.237 371.542 593.764 371.728 594.302 371.703C594.881 371.606 595.435 371.389 595.926 371.068C600.578 368.526 605.787 367.179 611.087 367.149C611.037 366.747 611.136 366.341 611.367 366.009C611.598 365.676 611.944 365.441 612.338 365.349C613.415 365.135 614.386 366.067 614.906 367.035C615.292 368.064 615.857 369.017 616.576 369.849C617.402 370.573 619.001 370.542 619.327 369.492C619.64 368.485 618.591 367.626 617.719 367.033C616.848 366.439 615.929 365.34 616.516 364.464C620.941 363.348 625.456 362.622 630.007 362.292C630.783 362.319 631.556 362.186 632.278 361.901C632.636 361.75 632.933 361.485 633.125 361.148C633.316 360.81 633.392 360.419 633.339 360.035C632.344 360.269 631.303 360.201 630.347 359.84C629.391 359.48 628.564 358.843 627.972 358.01C634.295 357.489 641.02 357.044 646.624 360.019C647.297 361.463 643.869 362.664 644.786 363.966C644.966 364.146 645.184 364.282 645.424 364.364C645.665 364.446 645.921 364.472 646.173 364.439C650.065 364.622 653.966 364.473 657.833 363.995C659.225 363.687 660.652 363.571 662.074 363.651C664.427 363.941 666.439 365.511 668.754 366.023C669.218 366.159 669.705 366.2 670.185 366.143C670.665 366.085 671.128 365.931 671.547 365.69C671.747 365.56 671.919 365.392 672.053 365.194C672.186 364.996 672.278 364.774 672.324 364.539C672.369 364.305 672.366 364.064 672.316 363.831C672.266 363.598 672.169 363.377 672.032 363.182C674.211 361.046 677.828 361.575 680.704 362.598C683.579 363.621 686.303 365.27 689.346 365.498C691.528 365.661 693.741 365.074 695.897 365.447C697.23 365.783 698.545 366.186 699.838 366.655C702.342 367.355 704.992 367.208 707.593 367.241C714.228 367.331 720.791 368.635 726.957 371.089C727.759 371.35 728.494 371.784 729.11 372.361C729.412 372.655 729.619 373.032 729.705 373.445C729.79 373.858 729.751 374.287 729.59 374.677L723.219 373.746C723.819 374.928 725.372 375.129 726.634 375.537C727.895 375.944 729.202 377.337 728.444 378.424C727.078 377.989 725.84 379.356 725.149 380.613C724.459 381.87 723.618 383.375 722.186 383.452C720.903 383.52 719.353 382.428 718.517 383.403C719.672 384.86 720.66 386.441 721.465 388.117C722.291 389.837 722.879 392.005 721.763 393.553C721.587 393.829 721.321 394.035 721.01 394.137C720.098 394.367 719.506 393.252 718.852 392.576C717.917 391.844 716.828 391.334 715.667 391.084C714.551 390.685 713.376 389.899 713.289 388.717C713.329 387.979 713.541 387.26 713.909 386.619C714.389 385.474 714.6 384.233 714.523 382.993C714.517 381.984 714.14 381.012 713.465 380.262C713.117 379.901 712.653 379.675 712.155 379.624C711.657 379.573 711.156 379.7 710.743 379.982C710.384 380.28 710.096 380.756 709.63 380.774C708.807 380.805 708.175 379.37 707.513 379.86C707.59 380.382 707.482 380.915 707.207 381.365C705.23 383.084 702.194 382.357 699.646 382.964C698.434 383.311 697.274 383.818 696.196 384.471C695.793 384.643 695.45 384.931 695.21 385.298C695.086 385.624 695.078 385.982 695.186 386.313C695.294 386.644 695.511 386.929 695.803 387.119C696.398 387.484 697.066 387.712 697.759 387.787C700.866 388.375 704.018 389.286 706.47 391.281C708.923 393.276 710.531 396.575 709.755 399.64L703.629 393.786C703.862 396.244 703.994 398.709 704.025 401.18C704.065 401.663 703.998 402.148 703.831 402.602C703.394 403.567 702.21 403.891 701.173 404.104C700.885 404.159 700.611 404.274 700.37 404.442C700.129 404.611 699.927 404.828 699.776 405.08C699.625 405.331 699.529 405.612 699.494 405.904C699.46 406.196 699.487 406.491 699.575 406.772C700.054 407.937 700.78 408.985 701.704 409.842C702.63 410.705 703.254 411.843 703.483 413.088C703.593 414.339 702.649 415.75 701.396 415.663C700.928 415.571 700.492 415.358 700.13 415.046C699.769 414.735 699.495 414.334 699.335 413.885C699.026 412.984 698.604 412.125 698.08 411.33C696.237 409.113 692.097 410.063 690.445 407.7C690.024 408.177 689.733 408.754 689.597 409.376C689.462 409.998 689.488 410.644 689.673 411.253C690.088 411.069 690.554 411.035 690.991 411.156C691.428 411.277 691.81 411.547 692.07 411.918C692.569 412.674 693.005 413.47 693.373 414.298C693.984 415.357 694.958 416.295 695.043 417.515C695.021 417.977 695.028 418.439 695.066 418.899C695.338 419.604 695.75 420.246 696.276 420.787C696.733 421.539 697 422.392 697.054 423.271C697.108 424.15 696.947 425.028 696.585 425.831C695.845 427.427 694.839 428.886 693.612 430.146C691.65 432.506 689.484 434.688 687.138 436.666C686.412 437.158 685.788 437.786 685.3 438.515C685.066 438.886 684.959 439.323 684.996 439.76C685.033 440.197 685.213 440.61 685.507 440.935C685.039 440.959 684.2 441.189 683.733 441.212C683.568 439.335 683.532 437.45 683.625 435.569C681.779 434.682 679.792 437.056 680.03 439.09C680.268 441.124 681.739 442.756 682.787 444.515C683.638 445.765 684.02 447.274 683.866 448.778C683.764 449.521 683.398 450.203 682.836 450.7C682.274 451.197 681.552 451.475 680.802 451.485C678.429 451.278 677.436 447.871 675.086 447.481C674.879 447.433 674.662 447.454 674.468 447.543C674.119 447.734 674.058 448.201 674.039 448.598C673.798 450.543 673.997 452.517 674.621 454.375C675.735 457.006 678.612 459.215 678.009 462.008C674.757 460.496 673.066 456.85 672.299 453.347C671.531 449.844 671.403 446.167 670.027 442.855C668.982 444.195 666.786 443.088 665.831 441.683C664.926 440.351 664.369 438.81 663.491 437.46C663.101 436.754 662.551 436.148 661.886 435.691C661.221 435.234 660.459 434.938 659.659 434.827C657.973 434.749 656.51 435.907 655.223 437C654.105 437.83 653.165 438.876 652.461 440.077C651.562 441.886 651.797 444.019 651.754 446.039C651.847 448.242 651.137 450.405 649.756 452.125C648.267 453.723 645.52 454.28 643.879 452.839C643.085 452.013 642.519 450.995 642.237 449.885C640.455 444.685 638.972 439.388 637.793 434.019C637.517 435.245 636.441 436.824 635.413 436.102C635.182 435.908 634.996 435.667 634.865 435.396C632.948 432.146 629.397 430.197 625.809 429.028C622.222 427.86 618.447 427.314 614.899 426.03C612.911 425.31 611.012 424.364 609.24 423.211C608.788 423.875 608.524 424.648 608.476 425.45C608.428 426.251 608.598 427.051 608.968 427.764C609.364 428.462 609.981 429.009 610.721 429.319C611.462 429.629 612.284 429.684 613.06 429.476C613.848 429.225 614.513 428.678 615.295 428.408C615.671 428.236 616.096 428.204 616.494 428.316C616.892 428.429 617.237 428.68 617.467 429.023C617.794 429.744 617.3 430.616 617.545 431.369C617.919 432.515 619.648 432.603 620.252 433.647C620.431 434.059 620.474 434.518 620.372 434.956C620.271 435.394 620.032 435.788 619.69 436.08C618.994 436.647 618.226 437.119 617.407 437.485C614.863 438.9 613.054 441.314 610.831 443.193C608.608 445.072 605.471 446.443 602.822 445.238C603.453 442.041 599.644 439.693 598.943 436.509C598.713 435.462 598.832 434.348 598.503 433.327C598.026 431.849 596.714 430.832 595.638 429.712C594.333 428.338 593.317 426.717 592.648 424.944C591.98 423.171 591.673 421.283 591.747 419.389C591.926 418.084 591.926 416.76 591.747 415.454C591.641 414.803 591.319 414.206 590.834 413.759C590.349 413.312 589.727 413.041 589.07 412.989C586.065 413.121 582.279 413.345 580.703 410.783C580.14 409.869 579.895 408.53 580.709 407.83C581.028 407.626 581.385 407.489 581.758 407.424C582.132 407.36 582.514 407.371 582.883 407.456L589.654 408.122C591.237 408.278 592.949 408.406 594.308 407.579C595.667 406.751 596.256 404.553 594.998 403.579C594.078 402.868 592.431 402.906 592.164 401.775C591.941 400.832 592.984 399.763 592.421 398.976C592.017 398.411 591.109 398.568 590.559 398.991C590.077 399.49 589.554 399.946 588.993 400.354C587.913 400.916 586.622 400.381 585.459 400.017C584.297 399.654 582.739 399.623 582.175 400.702C581.544 401.91 582.734 403.492 582.109 404.701C581.281 406.301 578.479 405.39 577.318 406.766C575.984 408.345 578.225 410.699 577.775 412.716C577.201 413.001 576.563 413.131 575.924 413.095C575.284 413.059 574.665 412.858 574.126 412.511C573.596 412.151 573.174 411.654 572.905 411.073C572.635 410.492 572.528 409.848 572.595 409.211C572.706 408.304 573.179 407.378 572.862 406.52C572.518 405.859 571.952 405.341 571.263 405.057L564.683 401.421C564.072 402.554 564.845 403.959 565.81 404.81C566.776 405.661 567.986 406.302 568.621 407.423C569.022 408.199 569.112 409.099 568.872 409.939C568.632 410.779 568.081 411.496 567.33 411.943C567.236 412.008 567.129 412.052 567.017 412.072C566.904 412.091 566.789 412.086 566.678 412.057C566.573 411.995 566.482 411.913 566.409 411.815C566.336 411.718 566.284 411.606 566.255 411.488C565.094 408.517 563.351 405.588 560.565 404.036C557.778 402.484 553.774 402.804 551.947 405.418C551.513 406.039 551.221 406.747 550.843 407.403C548.835 410.891 544.528 412.542 540.505 412.435C540.111 412.456 539.719 412.364 539.377 412.17C538.727 411.72 538.756 410.768 538.855 409.984L539.278 406.657C539.279 405.977 539.543 405.323 540.014 404.833C540.759 404.245 541.835 404.616 542.784 404.602C543.503 404.569 544.195 404.315 544.764 403.875C545.334 403.435 545.755 402.831 545.97 402.143C546.162 401.449 546.161 400.716 545.967 400.023C545.772 399.33 545.393 398.703 544.869 398.209C544.434 397.801 543.85 397.287 544.08 396.736C544.171 396.584 544.295 396.454 544.443 396.354C544.59 396.255 544.758 396.189 544.933 396.161C546.638 395.666 548.44 395.537 550.117 394.952C550.975 394.719 551.763 394.276 552.409 393.663C553.054 393.051 553.538 392.288 553.816 391.442C553.938 390.912 553.993 390.269 554.47 390.007C554.709 389.906 554.965 389.853 555.225 389.852C556.134 389.723 556.962 389.258 557.545 388.549C558.128 387.84 558.425 386.938 558.377 386.022C558.82 385.811 559.317 385.74 559.801 385.821C560.285 385.901 560.732 386.128 561.084 386.47C561.773 387.168 562.592 387.726 563.493 388.114C565.256 388.594 566.959 387.033 568.786 387.026C569.542 387.157 570.315 387.16 571.072 387.034C571.805 386.77 572.242 386.04 572.805 385.502C573.367 384.963 574.354 384.634 574.873 385.215L574.431 381.939C575.321 382.164 576.249 382.196 577.153 382.033C578.057 381.87 578.915 381.515 579.671 380.992L573.956 379.061C573.757 379.012 573.574 378.913 573.422 378.776C573.006 378.328 573.419 377.631 573.757 377.123C574.565 375.906 574.701 373.902 573.372 373.296C572.464 372.883 571.423 373.379 570.552 373.865L566.382 376.19C566.249 376.983 567.219 377.432 567.819 377.966C568.183 378.289 568.44 378.715 568.557 379.187C568.675 379.659 568.646 380.155 568.476 380.611C568.306 381.067 568.002 381.46 567.605 381.74C567.207 382.02 566.734 382.173 566.247 382.178C566.522 382.536 566.713 382.95 566.806 383.391C566.899 383.832 566.891 384.288 566.784 384.725L563.978 384.927C563.663 384.99 563.335 384.926 563.067 384.749C562.767 384.483 562.808 384.016 562.738 383.62C562.612 383.151 562.349 382.73 561.983 382.41C561.617 382.091 561.165 381.887 560.683 381.826C559.717 381.72 558.739 381.811 557.809 382.091C557.408 382.235 556.968 382.225 556.574 382.063C556.348 381.916 556.177 381.699 556.085 381.446C555.921 380.927 555.894 380.374 556.006 379.841C556.117 379.309 556.365 378.813 556.723 378.404C557.448 377.595 558.249 376.858 559.116 376.203C561.071 374.488 562.507 372.261 563.262 369.772C564.807 369.125 566.406 368.245 567.951 367.598C570.333 366.392 573.004 365.875 575.664 366.104L580.895 366.204C582.447 366.138 583.997 366.361 585.468 366.862C586.2 367.123 586.846 367.578 587.338 368.18C587.83 368.782 588.147 369.506 588.257 370.276C588.287 370.451 588.272 370.63 588.213 370.798C588.155 370.966 588.054 371.116 587.922 371.234C587.72 371.344 587.49 371.396 587.26 371.383C585.816 371.434 585.2 371.794 583.755 371.844Z" fill="#F2F2F2"/>
<path d="M542.055 388.241C542.259 388.047 542.406 387.801 542.48 387.53C542.553 387.258 542.551 386.971 542.472 386.701C541.975 386.509 541.433 386.46 540.91 386.559C540.386 386.658 539.9 386.901 539.507 387.261C539.197 387.575 538.93 387.928 538.712 388.311C538.31 388.833 538.022 389.433 537.868 390.073C537.713 390.713 537.695 391.379 537.815 392.026C537.848 392.163 537.907 392.292 537.99 392.405C538.073 392.519 538.178 392.615 538.298 392.687C538.477 392.759 538.669 392.789 538.861 392.775C539.619 392.774 540.375 392.728 541.127 392.636C541.589 392.579 542.125 392.449 542.303 392.019C542.538 391.455 541.97 390.816 542.136 390.227C542.245 389.964 542.409 389.728 542.619 389.535C542.723 389.438 542.803 389.318 542.852 389.184C542.902 389.051 542.92 388.908 542.904 388.767C542.837 388.49 542.415 388.334 542.262 388.574" fill="#F2F2F2"/>
<path d="M545.982 383.149C545.309 382.995 544.615 382.951 543.929 383.02C543.777 383.016 543.626 383.05 543.491 383.12C543.36 383.216 543.265 383.354 543.221 383.51C543.076 383.976 543.112 384.479 543.321 384.92C543.531 385.36 543.898 385.706 544.351 385.887C544.597 385.944 544.834 386.039 545.051 386.169C545.632 386.619 545.261 387.54 545.371 388.267C545.495 389.083 546.285 389.768 546.14 390.58C546.026 391.22 545.342 391.727 545.452 392.368C545.567 393.039 546.419 393.241 547.098 393.295C547.491 393.364 547.896 393.317 548.264 393.161C548.633 392.909 548.895 392.529 549 392.096C549.278 391.268 549.394 390.395 549.344 389.524C549.341 389.128 549.241 388.738 549.054 388.389C548.849 388.113 548.623 387.853 548.376 387.613C547.076 386.1 548.445 383.844 545.982 383.149Z" fill="#F2F2F2"/>
<path d="M433.662 397.686C436.072 397.686 438.026 395.732 438.026 393.322C438.026 390.912 436.072 388.958 433.662 388.958C431.252 388.958 429.298 390.912 429.298 393.322C429.298 395.732 431.252 397.686 433.662 397.686Z" fill="#6C63FF"/>
<path d="M473.088 490.984C475.498 490.984 477.452 489.03 477.452 486.62C477.452 484.21 475.498 482.256 473.088 482.256C470.678 482.256 468.724 484.21 468.724 486.62C468.724 489.03 470.678 490.984 473.088 490.984Z" fill="#6C63FF"/>
<path d="M640.272 397.084C642.682 397.084 644.636 395.13 644.636 392.72C644.636 390.31 642.682 388.356 640.272 388.356C637.862 388.356 635.908 390.31 635.908 392.72C635.908 395.13 637.862 397.084 640.272 397.084Z" fill="#6C63FF"/>
<path d="M717.017 506.032C719.427 506.032 721.381 504.078 721.381 501.668C721.381 499.258 719.427 497.304 717.017 497.304C714.607 497.304 712.653 499.258 712.653 501.668C712.653 504.078 714.607 506.032 717.017 506.032Z" fill="#6C63FF"/>
<path d="M574.512 459.684C576.922 459.684 578.876 457.73 578.876 455.32C578.876 452.91 576.922 450.956 574.512 450.956C572.102 450.956 570.148 452.91 570.148 455.32C570.148 457.73 572.102 459.684 574.512 459.684Z" fill="#6C63FF"/>
<path d="M177.234 236.555C177.243 255.865 165.767 262.612 151.608 262.618C151.279 262.619 150.952 262.615 150.626 262.608C149.97 262.594 149.32 262.565 148.678 262.519C135.898 261.621 125.965 254.538 125.956 236.58C125.947 217.996 149.688 194.531 151.468 192.796L151.471 192.795C151.539 192.728 151.574 192.695 151.574 192.695C151.574 192.695 177.224 217.247 177.234 236.555Z" fill="#6C63FF"/>
<path d="M150.673 259.665L160.044 246.559L150.65 261.104L150.626 262.608C149.97 262.594 149.32 262.565 148.678 262.519L149.678 243.201L149.671 243.052L149.688 243.023L149.783 241.198L140.352 226.626L149.811 239.83L149.834 240.218L150.591 225.622L142.515 210.563L150.688 223.057L151.468 192.796L151.471 192.696L151.472 192.795L151.351 216.658L159.376 207.194L151.317 218.714L151.111 231.782L158.607 219.237L151.082 233.704L150.968 240.971L161.846 223.508L150.926 243.506L150.673 259.665Z" fill="#3F3D56"/>
<path d="M845.687 249.214C845.687 249.214 848.869 265.467 848.074 266.67C847.278 267.874 850.46 274.496 863.187 272.69C875.915 270.884 880.687 258.243 880.687 258.243C880.687 258.243 870.346 248.01 871.937 245L845.687 249.214Z" fill="#FFB7B7"/>
<path d="M838.187 656.392V689.392L859.187 696.392L855.187 651.392L838.187 656.392Z" fill="#FFB7B7"/>
<path d="M903.687 660L900.687 701L918.687 690V657L903.687 660Z" fill="#FFB7B7"/>
<path d="M815.634 426C815.634 426 803.723 449.195 807.388 456.254C811.053 463.314 811.053 466.339 811.053 466.339C811.053 466.339 812.885 520.797 825.713 547.017C825.713 547.017 822.964 598.449 828.462 629.712L833.959 660.975L855.033 657.949L856.866 624.669C856.866 624.669 860.531 585.339 856.866 567.186C853.201 549.034 866.945 488.525 866.945 488.525L890.768 576.263C890.768 576.263 891.684 608.534 896.265 629.712C900.846 650.89 902.679 662.992 902.679 662.992L922.837 664C922.837 664 929.251 598.449 922.837 566.178C922.837 566.178 920.088 467.347 922.837 461.297C925.586 455.246 920.088 436.085 914.59 432.051C909.093 428.017 815.634 426 815.634 426Z" fill="#2F2E41"/>
<path d="M847.187 682.392C847.187 682.392 846.187 676.392 841.187 676.392H836.187L835.187 684.392L817.187 702.392C817.187 702.392 788.187 724.392 813.187 725.392C838.187 726.392 844.187 715.392 844.187 715.392C844.187 715.392 867.187 708.392 867.187 707.392C867.187 706.392 861.187 681.392 861.187 681.392L857.92 682.133L855.187 689.392L847.187 682.392Z" fill="#2F2E41"/>
<path d="M924.162 680.79C924.162 680.79 912.041 676.763 912.041 680.79V684.817C912.041 684.817 907.633 681.797 907.633 684.817C907.633 687.837 901.021 689.851 901.021 689.851L899.919 684.817C899.919 684.817 893.307 708.98 896.613 710.993C899.919 713.007 910.939 718.041 912.041 721.061C913.143 724.082 915.346 735.156 938.488 731.129C961.629 727.102 947.303 715.02 947.303 715.02L935.182 703.946L924.162 680.79Z" fill="#2F2E41"/>
<path d="M859.132 273.339C859.132 273.339 850.169 270.38 848.067 265.078C845.965 259.775 829.506 269.463 829.506 269.463L823.745 354.723L821.687 429.809C821.687 429.809 863.247 448.702 876.415 442.889C889.582 437.076 905.218 434.169 905.218 434.169L907.687 288.841L903.573 261.713C903.573 261.713 884.179 252.158 880.297 253.06C880.297 253.06 875.592 274.308 859.132 273.339Z" fill="#D0CDE1"/>
<path d="M838.687 264C838.687 264 835.898 268.187 834.728 268.187C833.558 268.187 814.836 270.048 813.081 282.142C811.326 294.237 816.006 329.59 816.006 329.59C816.006 329.59 816.591 365.873 819.517 377.968C822.442 390.062 819.809 397.97 819.809 397.97C819.809 397.97 816.006 429.137 819.517 431.928C823.027 434.719 830.008 439 830.008 439C830.008 439 839.408 422.624 836.483 399.366C833.558 376.107 829.462 342.615 831.803 331.451C834.143 320.287 838.687 264 838.687 264Z" fill="#575A89"/>
<path d="M787.687 390L794.687 403C794.687 403 827.687 440 833.687 419C839.687 398 809.687 393 809.687 393L800.687 384L787.687 390Z" fill="#FFB7B7"/>
<path d="M883.601 254C883.601 254 913.699 258.753 921.675 268.259C929.652 277.765 923.271 322.443 923.271 322.443C923.271 322.443 913.699 390.886 914.496 394.688C915.294 398.491 915.294 430.811 915.294 430.811C915.294 430.811 904.924 444.119 896.15 440.317C887.375 436.514 876.208 408.947 887.375 375.676C892.068 361.697 891.549 348.053 889.371 336.931C883.967 309.789 882.022 281.832 883.601 254Z" fill="#575A89"/>
<path d="M940.187 385.392L930.187 394.392C930.187 394.392 873.187 396.392 888.187 411.392C903.187 426.392 939.187 411.392 939.187 411.392L952.187 397.392L939.187 385.392H940.187Z" fill="#FFB7B7"/>
<path d="M818.848 278L810.332 281.786C810.332 281.786 776.265 327.221 773.426 336.687C770.587 346.153 767.748 367.924 795.191 402L812.224 393.481C812.224 393.481 793.298 366.031 799.922 355.618C806.547 345.206 821.687 327.221 821.687 327.221L818.848 278Z" fill="#575A89"/>
<path d="M923.687 272L928.705 272.937C928.705 272.937 991.419 324.476 986.402 344.154C981.384 363.832 946.265 406 946.265 406L932.885 391.944C932.885 391.944 962.152 353.524 950.445 344.154C938.739 334.783 923.687 318.853 923.687 318.853V272Z" fill="#575A89"/>
</g>
<defs>
<clipPath id="clip0">
<rect width="1099.22" height="734.892" fill="white"/>
</clipPath>
</defs>
</svg>
