<svg width="1138" height="742" viewBox="0 0 1138 742" fill="none" xmlns="http://www.w3.org/2000/svg">
<g clip-path="url(#clip0)">
<path d="M223.43 472.27L217.14 468.36C216.54 467.99 215.95 467.59 215.35 467.21C228.742 464.911 240.953 458.125 249.976 447.967C259 437.809 264.299 424.883 265.003 411.314C265.707 397.745 261.774 384.34 253.849 373.302C245.925 362.265 234.482 354.252 221.4 350.58L221.71 375.25L208.16 348.42H207.97C200.118 348.053 192.271 349.236 184.876 351.902C177.482 354.568 170.685 358.665 164.874 363.958C159.062 369.251 154.351 375.637 151.008 382.751C147.665 389.865 145.756 397.568 145.39 405.42C145.33 406.56 145.39 407.69 145.39 408.82C140.68 403.44 136.39 397.67 133.56 391.35C127.83 378.56 127.72 364.06 128.17 346.45C129.07 311.54 130.58 276.37 132.54 241.31C146.69 239.735 159.814 233.167 169.557 222.786C179.3 212.405 185.024 198.891 185.7 184.67C185.78 182.84 185.75 181.03 185.7 179.24C185.7 178.79 185.7 178.34 185.63 177.9C185.51 176.16 185.35 174.44 185.08 172.74C185.08 172.46 184.98 172.19 184.93 171.92C184.69 170.48 184.39 169.06 184.05 167.65C183.92 167.13 183.79 166.65 183.65 166.08C183.23 164.56 182.77 163.08 182.23 161.57C182.05 161.08 181.84 160.57 181.65 160.11C181.23 159.02 180.77 157.94 180.28 156.88C180.02 156.32 179.77 155.76 179.5 155.21C179.42 155.07 179.37 154.92 179.29 154.78C172.971 142.294 162.473 132.42 149.624 126.876C136.775 121.332 122.389 120.47 108.97 124.44L109.37 156.54L95.97 130.02C84.9512 136.333 76.2382 146.002 71.1022 157.616C65.9662 169.23 64.676 182.181 67.42 194.58H67.36C67.45 195.01 67.58 195.41 67.68 195.84C67.87 196.63 68.07 197.41 68.29 198.19C68.57 199.19 68.89 200.19 69.22 201.19C69.47 201.92 69.71 202.66 69.99 203.39C70.4 204.45 70.86 205.48 71.32 206.51C71.59 207.11 71.83 207.73 72.12 208.32C72.88 209.873 73.7067 211.383 74.6 212.85C74.91 213.37 75.26 213.85 75.6 214.36C76.24 215.36 76.88 216.36 77.6 217.29C78.03 217.88 78.49 218.44 78.94 219.02C79.6 219.85 80.27 220.67 80.94 221.46C81.43 222.03 81.94 222.57 82.45 223.12C83.19 223.89 83.94 224.64 84.72 225.38C85.23 225.87 85.72 226.38 86.29 226.84C87.17 227.62 88.09 228.37 89.02 229.1C89.49 229.46 89.95 229.85 90.43 230.21C91.85 231.21 93.31 232.21 94.82 233.21C95.1 233.39 95.41 233.53 95.69 233.7C96.96 234.44 98.24 235.14 99.56 235.79C100.13 236.07 100.71 236.31 101.29 236.57C102.37 237.06 103.46 237.57 104.58 237.95C105.23 238.2 105.89 238.43 106.58 238.66C107.68 239.03 108.8 239.37 109.93 239.66C110.59 239.84 111.26 240.03 111.93 240.19C113.15 240.48 114.4 240.72 115.66 240.94L115.9 240.99C115.08 255.777 114.347 270.573 113.7 285.38C110.136 278.049 105.11 271.524 98.9327 266.206C92.755 260.887 85.5554 256.888 77.776 254.453C69.9965 252.018 61.8015 251.199 53.694 252.046C45.5866 252.894 37.7379 255.389 30.63 259.38L41.21 288.38L19.42 267.38C7.75131 278.05 0.795248 292.915 0.080004 308.71C-0.198766 314.251 0.31304 319.803 1.6 325.2C4.33607 336.876 10.5172 347.46 19.3417 355.581C28.1662 363.701 39.2271 368.983 51.0897 370.741C62.9524 372.499 75.0696 370.652 85.8699 365.44C96.6702 360.228 105.655 351.891 111.66 341.51C111.66 343.01 111.56 344.51 111.52 346.02C111.12 361.56 110.62 380.9 118.37 398.17C123.62 409.87 132.06 419.37 140.37 427.89C145.8 433.44 151.43 438.8 157.2 443.99C162.875 451.621 170.286 457.792 178.82 461.99C188.3 469.3 198.12 476.17 208.27 482.51L214.61 486.45C220.31 489.98 226.15 493.61 231.87 497.38C230.87 497.28 229.87 497.17 228.87 497.12C216.179 496.529 203.629 499.988 193.034 506.999C182.439 514.01 174.348 524.208 169.93 536.12L207.33 566.55L166.19 557.01C166.203 567.132 168.781 577.085 173.683 585.941C178.585 594.796 185.652 602.264 194.223 607.649C202.794 613.033 212.589 616.157 222.695 616.729C232.8 617.301 242.886 615.302 252.01 610.92C251.09 612.08 250.163 613.233 249.23 614.38C247.39 616.667 245.573 618.94 243.78 621.2C219.44 652.02 212.67 681.29 224.72 703.6L239.38 695.68C227.65 673.97 245.29 646.17 256.85 631.53C258.61 629.297 260.397 627.063 262.21 624.83C277.78 605.46 295.4 583.58 294.97 556.7C294.32 516.21 254.97 491.85 223.43 472.27Z" fill="#F2F2F3"/>
<path d="M755.87 328.285L762.16 324.375C762.76 324.005 763.35 323.605 763.95 323.225C750.561 320.92 738.354 314.128 729.336 303.966C720.318 293.804 715.025 280.877 714.327 267.309C713.629 253.74 717.567 240.338 725.495 229.304C733.423 218.271 744.868 210.262 757.95 206.595L757.64 231.265L771.19 204.435H771.36C779.212 204.068 787.059 205.251 794.454 207.917C801.848 210.583 808.645 214.68 814.457 219.973C820.268 225.266 824.979 231.652 828.322 238.766C831.665 245.88 833.574 253.583 833.94 261.435C834 262.575 833.94 263.705 833.94 264.835C838.65 259.455 842.94 253.685 845.77 247.365C851.5 234.575 851.61 220.075 851.16 202.465C850.26 167.555 848.75 132.385 846.79 97.3251C832.64 95.7497 819.516 89.182 809.773 78.8011C800.03 68.4201 794.306 54.906 793.63 40.6851C793.55 38.8551 793.58 37.0451 793.63 35.2551C793.63 34.8051 793.63 34.3551 793.7 33.9151C793.82 32.1751 793.98 30.4551 794.25 28.7551C794.25 28.4751 794.35 28.2051 794.4 27.9351C794.64 26.4951 794.94 25.0751 795.28 23.6651C795.41 23.1451 795.54 22.6651 795.68 22.0951C796.1 20.5751 796.56 19.0951 797.1 17.5851C797.28 17.0951 797.49 16.5851 797.68 16.1251C798.1 15.0351 798.56 13.9551 799.05 12.8951C799.31 12.3351 799.56 11.7751 799.84 11.2251C799.91 11.0851 799.96 10.9351 800.04 10.7951C806.356 -1.68409 816.847 -11.5545 829.687 -17.0996C842.527 -22.6446 856.905 -23.5135 870.32 -19.5549L869.92 12.5451L883.32 -13.9749C894.342 -7.66308 903.059 2.00673 908.197 13.6229C913.335 25.2392 914.625 38.1935 911.88 50.5951H911.94C911.85 51.0251 911.72 51.4251 911.62 51.8551C911.43 52.6451 911.23 53.4251 911.01 54.2051C910.73 55.2051 910.41 56.2051 910.08 57.2051C909.83 57.9351 909.59 58.6751 909.31 59.4051C908.9 60.4651 908.44 61.4951 907.98 62.5251C907.71 63.1251 907.47 63.7451 907.18 64.3351C906.42 65.8884 905.593 67.3984 904.7 68.8651C904.39 69.3851 904.04 69.8651 903.7 70.3751C903.06 71.3751 902.42 72.3751 901.7 73.3051C901.27 73.8951 900.81 74.4551 900.36 75.0351C899.7 75.8651 899.03 76.6851 898.36 77.4751C897.87 78.0451 897.36 78.5851 896.85 79.1351C896.12 79.9051 895.36 80.6551 894.58 81.3951C894.07 81.8851 893.58 82.3951 893.01 82.8551C892.13 83.6351 891.21 84.3851 890.28 85.1151C889.81 85.4751 889.35 85.8651 888.87 86.2251C887.45 87.2251 885.99 88.2251 884.48 89.1751C884.2 89.3551 883.89 89.4951 883.61 89.6651C882.34 90.4051 881.06 91.1051 879.74 91.7551C879.17 92.0351 878.59 92.2751 878.01 92.5351C876.93 93.0251 875.84 93.5351 874.72 93.9151C874.07 94.1651 873.41 94.3951 872.72 94.6251C871.62 94.9951 870.5 95.3351 869.37 95.6251C868.71 95.8051 868.04 95.9951 867.37 96.1551C866.15 96.4451 864.9 96.6851 863.64 96.9051H863.4C864.22 111.698 864.953 126.495 865.6 141.295C869.164 133.964 874.19 127.439 880.367 122.121C886.545 116.802 893.745 112.803 901.524 110.368C909.303 107.933 917.499 107.114 925.606 107.961C933.713 108.809 941.562 111.304 948.67 115.295L938.09 144.295L959.86 123.395C971.529 134.065 978.485 148.93 979.2 164.725C979.479 170.266 978.967 175.818 977.68 181.215C974.944 192.891 968.763 203.475 959.938 211.596C951.114 219.716 940.053 224.998 928.19 226.756C916.328 228.514 904.21 226.667 893.41 221.455C882.61 216.243 873.625 207.906 867.62 197.525C867.62 199.025 867.73 200.525 867.76 202.035C868.16 217.575 868.66 236.915 860.91 254.185C855.66 265.885 847.22 275.385 838.91 283.905C833.48 289.455 827.85 294.815 822.08 300.005C816.405 307.637 808.994 313.807 800.46 318.005C790.98 325.315 781.16 332.185 771.01 338.525L764.67 342.465C758.97 345.995 753.13 349.625 747.41 353.395C748.41 353.295 749.41 353.185 750.41 353.135C763.101 352.544 775.651 356.004 786.246 363.014C796.841 370.025 804.932 380.223 809.35 392.135L771.95 422.565L813.09 413.025C813.077 423.147 810.499 433.1 805.597 441.956C800.695 450.811 793.628 458.28 785.057 463.664C776.486 469.048 766.691 472.172 756.585 472.744C746.48 473.316 736.394 471.317 727.27 466.935C728.19 468.095 729.117 469.248 730.05 470.395C731.89 472.682 733.707 474.955 735.5 477.215C759.84 508.035 766.61 537.305 754.56 559.615L739.9 551.695C751.63 529.985 733.99 502.185 722.43 487.545C720.67 485.312 718.883 483.078 717.07 480.845C701.52 461.525 683.9 439.625 684.33 412.765C684.98 372.225 724.29 347.865 755.87 328.285Z" fill="#F2F2F3"/>
<path d="M596.18 719.175C869.66 719.175 1091.36 704.4 1091.36 686.175C1091.36 667.95 869.66 653.175 596.18 653.175C322.7 653.175 101 667.95 101 686.175C101 704.4 322.7 719.175 596.18 719.175Z" fill="#F2F2F3"/>
<path d="M659.38 709.16L481.19 706.88L481.71 702.31L490.33 626.92H646.82L658.33 702.31L659.21 708.02L659.38 709.16Z" fill="#2F2E41"/>
<path opacity="0.1" d="M659.21 708.02H570.28L481.19 706.88L481.71 702.31H658.33L659.21 708.02Z" fill="black"/>
<path d="M687.94 703.45H451.49V709.16H687.94V703.45Z" fill="#575A88"/>
<path d="M913.54 174.11C913.549 172.157 913.174 170.222 912.435 168.414C911.696 166.606 910.609 164.962 909.234 163.575C907.86 162.187 906.226 161.084 904.425 160.329C902.625 159.573 900.693 159.179 898.74 159.17H238.42C236.467 159.179 234.535 159.573 232.735 160.329C230.934 161.084 229.3 162.187 227.926 163.575C226.551 164.962 225.464 166.606 224.725 168.414C223.986 170.222 223.611 172.157 223.62 174.11V574.37H913.54V174.11Z" fill="#3F3D56"/>
<path d="M223.62 570.38V617.26C223.62 621.185 225.179 624.95 227.955 627.725C230.73 630.501 234.495 632.06 238.42 632.06H898.74C902.665 632.06 906.43 630.501 909.205 627.725C911.981 624.95 913.54 621.185 913.54 617.26V570.38H223.62Z" fill="#575A88"/>
<path d="M888.4 184.3H252.17V544.11H888.4V184.3Z" fill="#2F2E41"/>
<path d="M571.97 614.27C574.306 614.273 576.612 613.744 578.714 612.723C580.815 611.703 582.657 610.218 584.1 608.38C584.541 607.819 584.942 607.227 585.3 606.61L576.84 605.22L585.99 605.29C586.866 603.38 587.344 601.312 587.395 599.211C587.447 597.11 587.071 595.021 586.29 593.07L574.01 599.44L585.33 591.12C584.267 589.293 582.839 587.703 581.136 586.451C579.433 585.199 577.49 584.31 575.429 583.84C573.368 583.37 571.232 583.329 569.154 583.719C567.076 584.11 565.101 584.923 563.351 586.109C561.601 587.295 560.113 588.828 558.981 590.613C557.848 592.399 557.095 594.398 556.768 596.486C556.44 598.575 556.546 600.708 557.078 602.754C557.61 604.801 558.557 606.715 559.86 608.38C561.301 610.215 563.139 611.699 565.237 612.719C567.335 613.739 569.637 614.27 571.97 614.27Z" fill="#F2F2F2"/>
<path opacity="0.1" d="M587.42 632.06L658.51 703.45L647.6 632.06H587.42Z" fill="black"/>
<path d="M778.35 680.78L797.5 669.58C794.906 665.163 791.598 661.206 787.71 657.87L751.6 669.1L779.89 652.46C772.884 648.622 765 646.675 757.014 646.81C749.027 646.945 741.213 649.157 734.341 653.229C727.469 657.3 721.776 663.091 717.822 670.032C713.868 676.972 711.789 684.822 711.79 692.81C711.79 718.22 732.39 719.1 757.79 719.1C783.19 719.1 803.79 718.22 803.79 692.81C803.798 686.383 802.455 680.026 799.85 674.15L778.35 680.78Z" fill="#57B894"/>
<path opacity="0.1" d="M783.23 705.48C781.187 703.439 778.908 701.65 776.44 700.15C772.97 697.84 769.37 695.49 765.27 694.7C761.68 694.01 757.96 694.59 754.27 694.39C747.903 694 741.91 691.251 737.46 686.68C734.84 683.98 732.79 680.68 729.64 678.59C726.25 676.37 721.95 675.89 717.94 676.44C716.771 676.615 715.612 676.855 714.47 677.16C712.664 682.163 711.744 687.442 711.75 692.76C711.75 718.17 732.35 719.05 757.75 719.05C770.08 719.05 781.28 718.84 789.54 715.72L788.16 713.14C786.847 710.389 785.19 707.815 783.23 705.48V705.48Z" fill="black"/>
<path opacity="0.3" d="M301.58 323.11H280.43V329.53H301.58V323.11Z" fill="#6C63FF"/>
<path opacity="0.3" d="M865.93 323.3H844.78V329.72H865.93V323.3Z" fill="#F2F2F2"/>
<path opacity="0.3" d="M301.77 368.24H280.62V374.66H301.77V368.24Z" fill="#6C63FF"/>
<path opacity="0.3" d="M301.96 413.37H280.81V419.79H301.96V413.37Z" fill="#6C63FF"/>
<path opacity="0.3" d="M302.15 458.49H281V464.91H302.15V458.49Z" fill="#6C63FF"/>
<g opacity="0.2">
<path opacity="0.2" d="M307.58 326.2H301.58V326.45H307.58V326.2Z" fill="#F2F2F2"/>
<path opacity="0.2" d="M826.61 326.45H814.82V326.2H826.61V326.45ZM803.02 326.45H791.23V326.2H803.02V326.45ZM779.43 326.45H767.63V326.2H779.43V326.45ZM755.84 326.45H744.04V326.2H755.84V326.45ZM732.25 326.45H720.45V326.2H732.25V326.45ZM708.65 326.45H696.86V326.2H708.65V326.45ZM685.06 326.45H673.26V326.2H685.06V326.45ZM661.47 326.45H649.67V326.2H661.47V326.45ZM637.88 326.45H626.08V326.2H637.88V326.45ZM614.28 326.45H602.49V326.2H614.28V326.45ZM590.69 326.45H578.89V326.2H590.69V326.45ZM567.1 326.45H555.3V326.2H567.1V326.45ZM543.51 326.45H531.71V326.2H543.51V326.45ZM519.91 326.45H508.12V326.2H519.91V326.45ZM496.32 326.45H484.53V326.2H496.32V326.45ZM472.73 326.45H460.97V326.2H472.77L472.73 326.45ZM449.14 326.45H437.34V326.2H449.14V326.45ZM425.54 326.45H413.75V326.2H425.54V326.45ZM401.95 326.45H390.16V326.2H401.97L401.95 326.45ZM378.36 326.45H366.56V326.2H378.36V326.45ZM354.77 326.45H342.97V326.2H354.77V326.45ZM331.17 326.45H319.38V326.2H331.17V326.45Z" fill="#F2F2F2"/>
<path opacity="0.2" d="M844.41 326.2H838.41V326.45H844.41V326.2Z" fill="#F2F2F2"/>
<path opacity="0.2" d="M307.58 326.2H301.58V326.45H307.58V326.2Z" fill="#F2F2F2"/>
<path opacity="0.2" d="M826.61 326.45H814.82V326.2H826.61V326.45ZM803.02 326.45H791.23V326.2H803.02V326.45ZM779.43 326.45H767.63V326.2H779.43V326.45ZM755.84 326.45H744.04V326.2H755.84V326.45ZM732.25 326.45H720.45V326.2H732.25V326.45ZM708.65 326.45H696.86V326.2H708.65V326.45ZM685.06 326.45H673.26V326.2H685.06V326.45ZM661.47 326.45H649.67V326.2H661.47V326.45ZM637.88 326.45H626.08V326.2H637.88V326.45ZM614.28 326.45H602.49V326.2H614.28V326.45ZM590.69 326.45H578.89V326.2H590.69V326.45ZM567.1 326.45H555.3V326.2H567.1V326.45ZM543.51 326.45H531.71V326.2H543.51V326.45ZM519.91 326.45H508.12V326.2H519.91V326.45ZM496.32 326.45H484.53V326.2H496.32V326.45ZM472.73 326.45H460.97V326.2H472.77L472.73 326.45ZM449.14 326.45H437.34V326.2H449.14V326.45ZM425.54 326.45H413.75V326.2H425.54V326.45ZM401.95 326.45H390.16V326.2H401.97L401.95 326.45ZM378.36 326.45H366.56V326.2H378.36V326.45ZM354.77 326.45H342.97V326.2H354.77V326.45ZM331.17 326.45H319.38V326.2H331.17V326.45Z" fill="#F2F2F2"/>
<path opacity="0.2" d="M844.41 326.2H838.41V326.45H844.41V326.2Z" fill="#F2F2F2"/>
</g>
<path opacity="0.3" d="M301.58 278.11H280.43V284.53H301.58V278.11Z" fill="#6C63FF"/>
<path opacity="0.3" d="M865.93 278.3H844.78V284.72H865.93V278.3Z" fill="#F2F2F2"/>
<g opacity="0.2">
<path opacity="0.2" d="M307.58 281.2H301.58V281.45H307.58V281.2Z" fill="#F2F2F2"/>
<path opacity="0.2" d="M826.61 281.45H814.82V281.2H826.61V281.45ZM803.02 281.45H791.23V281.2H803.02V281.45ZM779.43 281.45H767.63V281.2H779.43V281.45ZM755.84 281.45H744.04V281.2H755.84V281.45ZM732.25 281.45H720.45V281.2H732.25V281.45ZM708.65 281.45H696.86V281.2H708.65V281.45ZM685.06 281.45H673.26V281.2H685.06V281.45ZM661.47 281.45H649.67V281.2H661.47V281.45ZM637.88 281.45H626.08V281.2H637.88V281.45ZM614.28 281.45H602.49V281.2H614.28V281.45ZM590.69 281.45H578.89V281.2H590.69V281.45ZM567.1 281.45H555.3V281.2H567.1V281.45ZM543.51 281.45H531.71V281.2H543.51V281.45ZM519.91 281.45H508.12V281.2H519.91V281.45ZM496.32 281.45H484.53V281.2H496.32V281.45ZM472.73 281.45H460.97V281.2H472.77L472.73 281.45ZM449.14 281.45H437.34V281.2H449.14V281.45ZM425.54 281.45H413.75V281.2H425.54V281.45ZM401.95 281.45H390.16V281.2H401.97L401.95 281.45ZM378.36 281.45H366.56V281.2H378.36V281.45ZM354.77 281.45H342.97V281.2H354.77V281.45ZM331.17 281.45H319.38V281.2H331.17V281.45Z" fill="#F2F2F2"/>
<path opacity="0.2" d="M844.41 281.2H838.41V281.45H844.41V281.2Z" fill="#F2F2F2"/>
</g>
<path opacity="0.3" d="M865.93 368.24H844.78V374.66H865.93V368.24Z" fill="#F2F2F2"/>
<g opacity="0.2">
<path opacity="0.2" d="M307.58 371.14H301.58V371.39H307.58V371.14Z" fill="#F2F2F2"/>
<path opacity="0.2" d="M826.61 371.38H814.82V371.13H826.61V371.38ZM803.02 371.38H791.23V371.13H803.02V371.38ZM779.43 371.38H767.63V371.13H779.43V371.38ZM755.84 371.38H744.04V371.13H755.84V371.38ZM732.25 371.38H720.45V371.13H732.25V371.38ZM708.65 371.38H696.86V371.13H708.65V371.38ZM685.06 371.38H673.26V371.13H685.06V371.38ZM661.47 371.38H649.67V371.13H661.47V371.38ZM637.88 371.38H626.08V371.13H637.88V371.38ZM614.28 371.38H602.49V371.13H614.28V371.38ZM590.69 371.38H578.89V371.13H590.69V371.38ZM567.1 371.38H555.3V371.13H567.1V371.38ZM543.51 371.38H531.71V371.13H543.51V371.38ZM519.91 371.38H508.12V371.13H519.91V371.38ZM496.32 371.38H484.53V371.13H496.32V371.38ZM472.73 371.38H460.97V371.13H472.77L472.73 371.38ZM449.14 371.38H437.34V371.13H449.14V371.38ZM425.54 371.38H413.75V371.13H425.54V371.38ZM401.95 371.38H390.16V371.13H401.97L401.95 371.38ZM378.36 371.38H366.56V371.13H378.36V371.38ZM354.77 371.38H342.97V371.13H354.77V371.38ZM331.17 371.38H319.38V371.13H331.17V371.38Z" fill="#F2F2F2"/>
<path opacity="0.2" d="M844.41 371.14H838.41V371.39H844.41V371.14Z" fill="#F2F2F2"/>
<path opacity="0.2" d="M307.58 371.14H301.58V371.39H307.58V371.14Z" fill="#F2F2F2"/>
<path opacity="0.2" d="M826.61 371.38H814.82V371.13H826.61V371.38ZM803.02 371.38H791.23V371.13H803.02V371.38ZM779.43 371.38H767.63V371.13H779.43V371.38ZM755.84 371.38H744.04V371.13H755.84V371.38ZM732.25 371.38H720.45V371.13H732.25V371.38ZM708.65 371.38H696.86V371.13H708.65V371.38ZM685.06 371.38H673.26V371.13H685.06V371.38ZM661.47 371.38H649.67V371.13H661.47V371.38ZM637.88 371.38H626.08V371.13H637.88V371.38ZM614.28 371.38H602.49V371.13H614.28V371.38ZM590.69 371.38H578.89V371.13H590.69V371.38ZM567.1 371.38H555.3V371.13H567.1V371.38ZM543.51 371.38H531.71V371.13H543.51V371.38ZM519.91 371.38H508.12V371.13H519.91V371.38ZM496.32 371.38H484.53V371.13H496.32V371.38ZM472.73 371.38H460.97V371.13H472.77L472.73 371.38ZM449.14 371.38H437.34V371.13H449.14V371.38ZM425.54 371.38H413.75V371.13H425.54V371.38ZM401.95 371.38H390.16V371.13H401.97L401.95 371.38ZM378.36 371.38H366.56V371.13H378.36V371.38ZM354.77 371.38H342.97V371.13H354.77V371.38ZM331.17 371.38H319.38V371.13H331.17V371.38Z" fill="#F2F2F2"/>
<path opacity="0.2" d="M844.41 371.14H838.41V371.39H844.41V371.14Z" fill="#F2F2F2"/>
</g>
<path opacity="0.3" d="M865.93 413.18H844.78V419.6H865.93V413.18Z" fill="#F2F2F2"/>
<g opacity="0.2">
<path opacity="0.2" d="M307.58 416.07H301.58V416.32H307.58V416.07Z" fill="#F2F2F2"/>
<path opacity="0.2" d="M826.61 416.32H814.82V416.07H826.61V416.32ZM803.02 416.32H791.23V416.07H803.02V416.32ZM779.43 416.32H767.63V416.07H779.43V416.32ZM755.84 416.32H744.04V416.07H755.84V416.32ZM732.25 416.32H720.45V416.07H732.25V416.32ZM708.65 416.32H696.86V416.07H708.65V416.32ZM685.06 416.32H673.26V416.07H685.06V416.32ZM661.47 416.32H649.67V416.07H661.47V416.32ZM637.88 416.32H626.08V416.07H637.88V416.32ZM614.28 416.32H602.49V416.07H614.28V416.32ZM590.69 416.32H578.89V416.07H590.69V416.32ZM567.1 416.32H555.3V416.07H567.1V416.32ZM543.51 416.32H531.71V416.07H543.51V416.32ZM519.91 416.32H508.12V416.07H519.91V416.32ZM496.32 416.32H484.53V416.07H496.32V416.32ZM472.73 416.32H460.97V416.07H472.77L472.73 416.32ZM449.14 416.32H437.34V416.07H449.14V416.32ZM425.54 416.32H413.75V416.07H425.54V416.32ZM401.95 416.32H390.16V416.07H401.97L401.95 416.32ZM378.36 416.32H366.56V416.07H378.36V416.32ZM354.77 416.32H342.97V416.07H354.77V416.32ZM331.17 416.32H319.38V416.07H331.17V416.32Z" fill="#F2F2F2"/>
<path opacity="0.2" d="M844.41 416.07H838.41V416.32H844.41V416.07Z" fill="#F2F2F2"/>
<path opacity="0.2" d="M307.58 416.07H301.58V416.32H307.58V416.07Z" fill="#F2F2F2"/>
<path opacity="0.2" d="M826.61 416.32H814.82V416.07H826.61V416.32ZM803.02 416.32H791.23V416.07H803.02V416.32ZM779.43 416.32H767.63V416.07H779.43V416.32ZM755.84 416.32H744.04V416.07H755.84V416.32ZM732.25 416.32H720.45V416.07H732.25V416.32ZM708.65 416.32H696.86V416.07H708.65V416.32ZM685.06 416.32H673.26V416.07H685.06V416.32ZM661.47 416.32H649.67V416.07H661.47V416.32ZM637.88 416.32H626.08V416.07H637.88V416.32ZM614.28 416.32H602.49V416.07H614.28V416.32ZM590.69 416.32H578.89V416.07H590.69V416.32ZM567.1 416.32H555.3V416.07H567.1V416.32ZM543.51 416.32H531.71V416.07H543.51V416.32ZM519.91 416.32H508.12V416.07H519.91V416.32ZM496.32 416.32H484.53V416.07H496.32V416.32ZM472.73 416.32H460.97V416.07H472.77L472.73 416.32ZM449.14 416.32H437.34V416.07H449.14V416.32ZM425.54 416.32H413.75V416.07H425.54V416.32ZM401.95 416.32H390.16V416.07H401.97L401.95 416.32ZM378.36 416.32H366.56V416.07H378.36V416.32ZM354.77 416.32H342.97V416.07H354.77V416.32ZM331.17 416.32H319.38V416.07H331.17V416.32Z" fill="#F2F2F2"/>
<path opacity="0.2" d="M844.41 416.07H838.41V416.32H844.41V416.07Z" fill="#F2F2F2"/>
</g>
<path opacity="0.3" d="M865.93 458.11H844.78V464.53H865.93V458.11Z" fill="#F2F2F2"/>
<g opacity="0.2">
<path opacity="0.2" d="M307.58 461.01H301.58V461.26H307.58V461.01Z" fill="#F2F2F2"/>
<path opacity="0.2" d="M826.61 461.26H814.82V461.01H826.61V461.26ZM803.02 461.26H791.23V461.01H803.02V461.26ZM779.43 461.26H767.63V461.01H779.43V461.26ZM755.84 461.26H744.04V461.01H755.84V461.26ZM732.25 461.26H720.45V461.01H732.25V461.26ZM708.65 461.26H696.86V461.01H708.65V461.26ZM685.06 461.26H673.26V461.01H685.06V461.26ZM661.47 461.26H649.67V461.01H661.47V461.26ZM637.88 461.26H626.08V461.01H637.88V461.26ZM614.28 461.26H602.49V461.01H614.28V461.26ZM590.69 461.26H578.89V461.01H590.69V461.26ZM567.1 461.26H555.3V461.01H567.1V461.26ZM543.51 461.26H531.71V461.01H543.51V461.26ZM519.91 461.26H508.12V461.01H519.91V461.26ZM496.32 461.26H484.53V461.01H496.32V461.26ZM472.73 461.26H460.97V461.01H472.77L472.73 461.26ZM449.14 461.26H437.34V461.01H449.14V461.26ZM425.54 461.26H413.75V461.01H425.54V461.26ZM401.95 461.26H390.16V461.01H401.97L401.95 461.26ZM378.36 461.26H366.56V461.01H378.36V461.26ZM354.77 461.26H342.97V461.01H354.77V461.26ZM331.17 461.26H319.38V461.01H331.17V461.26Z" fill="#F2F2F2"/>
<path opacity="0.2" d="M844.41 461.01H838.41V461.26H844.41V461.01Z" fill="#F2F2F2"/>
<path opacity="0.2" d="M307.58 461.01H301.58V461.26H307.58V461.01Z" fill="#F2F2F2"/>
<path opacity="0.2" d="M826.61 461.26H814.82V461.01H826.61V461.26ZM803.02 461.26H791.23V461.01H803.02V461.26ZM779.43 461.26H767.63V461.01H779.43V461.26ZM755.84 461.26H744.04V461.01H755.84V461.26ZM732.25 461.26H720.45V461.01H732.25V461.26ZM708.65 461.26H696.86V461.01H708.65V461.26ZM685.06 461.26H673.26V461.01H685.06V461.26ZM661.47 461.26H649.67V461.01H661.47V461.26ZM637.88 461.26H626.08V461.01H637.88V461.26ZM614.28 461.26H602.49V461.01H614.28V461.26ZM590.69 461.26H578.89V461.01H590.69V461.26ZM567.1 461.26H555.3V461.01H567.1V461.26ZM543.51 461.26H531.71V461.01H543.51V461.26ZM519.91 461.26H508.12V461.01H519.91V461.26ZM496.32 461.26H484.53V461.01H496.32V461.26ZM472.73 461.26H460.97V461.01H472.77L472.73 461.26ZM449.14 461.26H437.34V461.01H449.14V461.26ZM425.54 461.26H413.75V461.01H425.54V461.26ZM401.95 461.26H390.16V461.01H401.97L401.95 461.26ZM378.36 461.26H366.56V461.01H378.36V461.26ZM354.77 461.26H342.97V461.01H354.77V461.26ZM331.17 461.26H319.38V461.01H331.17V461.26Z" fill="#F2F2F2"/>
<path opacity="0.2" d="M844.41 461.01H838.41V461.26H844.41V461.01Z" fill="#F2F2F2"/>
</g>
<path d="M370.53 281.51V461.7" stroke="#F2F2F2" stroke-width="0.1" stroke-miterlimit="10"/>
<path d="M443.53 281.51V461.7" stroke="#F2F2F2" stroke-width="0.1" stroke-miterlimit="10"/>
<path d="M516.53 281.51V461.7" stroke="#F2F2F2" stroke-width="0.1" stroke-miterlimit="10"/>
<path d="M589.53 281.51V461.7" stroke="#F2F2F2" stroke-width="0.1" stroke-miterlimit="10"/>
<path d="M662.53 281.51V461.7" stroke="#F2F2F2" stroke-width="0.1" stroke-miterlimit="10"/>
<path d="M735.53 281.51V461.7" stroke="#F2F2F2" stroke-width="0.1" stroke-miterlimit="10"/>
<path d="M808.53 281.51V461.7" stroke="#F2F2F2" stroke-width="0.1" stroke-miterlimit="10"/>
<path opacity="0.3" d="M824.32 269.35L815.97 278.05C815.801 278.232 815.66 278.437 815.55 278.66L810.37 289.33C810.164 289.759 809.833 290.115 809.421 290.352C809.009 290.59 808.534 290.697 808.06 290.66L806.4 290.53C805.918 290.496 805.458 290.314 805.083 290.01C804.707 289.706 804.434 289.294 804.3 288.83L802.7 283.29C802.56 282.805 802.27 282.378 801.871 282.07C801.471 281.762 800.984 281.589 800.48 281.577C799.976 281.565 799.481 281.714 799.068 282.002C798.654 282.29 798.343 282.703 798.18 283.18L795.49 291.06C795.331 291.53 795.028 291.939 794.624 292.227C794.221 292.516 793.736 292.671 793.24 292.67H782.97C782.406 292.668 781.862 292.465 781.433 292.099C781.005 291.733 780.72 291.226 780.63 290.67L777.73 272.52C777.653 272.024 777.42 271.565 777.065 271.209C776.71 270.853 776.252 270.62 775.756 270.542C775.259 270.464 774.751 270.546 774.304 270.776C773.858 271.005 773.495 271.371 773.27 271.82L758.4 301.17C758.247 301.474 758.03 301.741 757.764 301.954C757.498 302.166 757.189 302.319 756.859 302.401C756.529 302.484 756.185 302.494 755.85 302.432C755.516 302.37 755.198 302.236 754.92 302.04L746.08 295.8C745.598 295.461 745.007 295.313 744.422 295.383C743.837 295.453 743.299 295.737 742.91 296.18L739.56 300.05C739.461 300.164 739.374 300.288 739.3 300.42L730.36 315.89C730.133 316.286 729.796 316.608 729.389 316.816C728.983 317.024 728.524 317.109 728.07 317.06L722.62 316.52C722.239 316.483 721.855 316.538 721.5 316.68L716.62 318.63C716.055 318.843 715.43 318.833 714.872 318.6C714.314 318.368 713.867 317.931 713.62 317.38L712.55 314.93C712.357 314.491 712.036 314.121 711.629 313.868C711.223 313.614 710.749 313.49 710.27 313.51L704.69 313.77C704.345 313.785 704.007 313.876 703.701 314.036C703.395 314.197 703.128 314.424 702.92 314.7L701.34 316.76C701.08 317.1 700.733 317.363 700.336 317.521C699.938 317.68 699.505 317.728 699.083 317.66C698.661 317.592 698.264 317.411 697.936 317.137C697.608 316.862 697.361 316.504 697.22 316.1L695.22 310.45C695.097 310.098 694.892 309.781 694.623 309.523C694.354 309.266 694.028 309.075 693.672 308.967C693.315 308.859 692.938 308.836 692.571 308.901C692.204 308.966 691.858 309.116 691.56 309.34L682.06 316.46L671.56 324.93C671.201 325.218 670.766 325.396 670.309 325.442C669.851 325.488 669.389 325.401 668.98 325.19L660.83 320.96C660.393 320.736 659.897 320.652 659.41 320.72L642.9 323.03C642.421 323.095 641.974 323.303 641.616 323.628C641.259 323.953 641.009 324.379 640.9 324.85L637.97 337.58C637.879 337.977 637.686 338.344 637.412 338.645C637.137 338.946 636.79 339.172 636.403 339.299C636.016 339.427 635.602 339.453 635.202 339.374C634.803 339.295 634.43 339.115 634.12 338.85C633.846 338.616 633.522 338.447 633.173 338.357C632.824 338.266 632.459 338.256 632.105 338.328C631.752 338.399 631.419 338.55 631.132 338.768C630.846 338.987 630.612 339.268 630.45 339.59L628.2 344.1C628.031 344.433 627.787 344.723 627.487 344.945C627.186 345.167 626.838 345.316 626.47 345.38L621.36 346.23C621.031 346.287 620.717 346.413 620.44 346.6L612.39 351.96C612.003 352.22 611.547 352.36 611.08 352.36H607.31C606.847 352.361 606.393 352.226 606.006 351.972C605.618 351.718 605.314 351.355 605.13 350.93L604.13 348.54C604.003 348.25 603.819 347.989 603.589 347.772C603.359 347.554 603.087 347.385 602.791 347.274C602.495 347.163 602.179 347.113 601.863 347.126C601.547 347.139 601.236 347.215 600.95 347.35L592.21 351.44C591.858 351.605 591.47 351.682 591.081 351.663C590.693 351.644 590.314 351.529 589.98 351.33L585.98 348.92C585.611 348.699 585.19 348.582 584.76 348.58H575.93C575.464 348.581 575.008 348.721 574.62 348.98L565.81 354.83C565.471 355.055 565.079 355.189 564.672 355.219C564.266 355.249 563.859 355.173 563.49 355L559.49 353.11C559.024 352.892 558.5 352.832 557.996 352.938C557.493 353.045 557.038 353.312 556.7 353.7L554.8 355.87C554.551 356.157 554.237 356.381 553.884 356.521C553.531 356.661 553.149 356.713 552.771 356.674C552.393 356.635 552.03 356.505 551.713 356.295C551.396 356.086 551.134 355.802 550.95 355.47L550.38 354.47C550.225 354.194 550.017 353.951 549.767 353.757C549.518 353.562 549.231 353.42 548.926 353.338C548.62 353.256 548.301 353.236 547.987 353.279C547.674 353.322 547.372 353.428 547.1 353.59L540.17 357.7C539.811 357.906 539.404 358.015 538.99 358.015C538.576 358.015 538.169 357.906 537.81 357.7L534.95 356.11C534.627 355.928 534.266 355.825 533.896 355.81C533.526 355.794 533.157 355.866 532.82 356.02L530.1 357.26C529.794 357.397 529.463 357.468 529.128 357.469C528.792 357.47 528.461 357.4 528.154 357.264C527.848 357.128 527.573 356.93 527.348 356.681C527.124 356.432 526.954 356.139 526.85 355.82L525.09 350.58C524.94 350.099 524.639 349.679 524.232 349.382C523.825 349.085 523.334 348.926 522.83 348.93H520.27C519.867 348.932 519.471 348.828 519.12 348.63L509.29 343.24C508.89 343.024 508.436 342.927 507.982 342.96C507.528 342.994 507.094 343.157 506.73 343.43L499.52 348.83C499.11 349.137 498.612 349.302 498.1 349.3H489.03C488.563 349.3 488.107 349.44 487.72 349.7L486.02 350.83C485.74 351.017 485.424 351.143 485.092 351.199C484.76 351.254 484.42 351.239 484.094 351.153C483.769 351.066 483.465 350.912 483.204 350.699C482.943 350.487 482.73 350.221 482.58 349.92L482.17 349.11C481.975 348.714 481.674 348.38 481.299 348.147C480.924 347.913 480.491 347.79 480.05 347.79H475.5C475.139 347.791 474.783 347.874 474.458 348.033C474.134 348.193 473.851 348.424 473.63 348.71L470.81 352.32C470.576 352.619 470.274 352.858 469.929 353.016C469.583 353.174 469.205 353.247 468.826 353.229C468.446 353.21 468.077 353.1 467.749 352.909C467.421 352.718 467.143 352.451 466.94 352.13L466.14 350.88C465.81 350.356 465.288 349.983 464.685 349.841C464.083 349.699 463.449 349.799 462.92 350.12L460.58 351.52C460.182 351.758 459.722 351.875 459.259 351.855C458.795 351.836 458.347 351.681 457.97 351.41L448.54 344.58C448.371 344.461 448.19 344.36 448 344.28L440.63 341.45C440.056 341.241 439.424 341.262 438.865 341.508C438.306 341.754 437.864 342.206 437.63 342.77L432.5 355.27C432.426 355.446 432.375 355.631 432.35 355.82L430.69 367.08C430.617 367.556 430.4 367.999 430.07 368.35L426.56 372.12C426.196 372.504 425.715 372.757 425.192 372.839C424.669 372.92 424.134 372.826 423.67 372.57L417.58 369.19C417.277 369.02 416.94 368.919 416.594 368.894C416.248 368.869 415.9 368.92 415.576 369.044C415.251 369.168 414.958 369.362 414.717 369.612C414.476 369.862 414.293 370.161 414.18 370.49L410.32 381.78C410.233 382.027 410.189 382.288 410.19 382.55V389.67C410.189 390.132 410.053 390.583 409.799 390.968C409.545 391.354 409.184 391.657 408.76 391.84L402.57 394.58C402.226 394.728 401.852 394.793 401.478 394.768C401.104 394.744 400.742 394.632 400.42 394.44L395.76 391.7C395.296 391.428 394.753 391.322 394.22 391.4L386.05 392.57C385.583 392.637 385.106 392.562 384.682 392.355C384.258 392.148 383.905 391.819 383.67 391.41L382.29 389.05C381.992 388.541 381.514 388.163 380.95 387.99L377.24 386.83C376.807 386.692 376.344 386.682 375.906 386.801C375.468 386.92 375.074 387.163 374.77 387.5L369.62 393.22C369.214 393.669 368.653 393.947 368.05 394L360.45 394.64C360.098 394.66 359.755 394.763 359.45 394.94L346.2 402.56C345.786 402.795 345.312 402.9 344.838 402.863C344.364 402.825 343.912 402.647 343.54 402.35L339.78 399.35C339.359 399.016 338.838 398.833 338.3 398.83H324.06C323.704 398.831 323.353 398.752 323.033 398.598C322.712 398.444 322.431 398.219 322.21 397.94L318.62 393.46C318.405 393.192 318.134 392.974 317.826 392.822C317.519 392.669 317.182 392.585 316.838 392.575C316.495 392.566 316.153 392.631 315.838 392.767C315.522 392.902 315.24 393.105 315.01 393.36L310.69 398.16C310.299 398.594 310.082 399.156 310.08 399.74V459.38C310.08 460.009 310.33 460.611 310.774 461.056C311.219 461.5 311.821 461.75 312.45 461.75H826.18C826.492 461.75 826.801 461.688 827.089 461.569C827.377 461.449 827.639 461.273 827.859 461.052C828.08 460.831 828.254 460.569 828.372 460.28C828.491 459.991 828.551 459.682 828.55 459.37L828.41 271.04C828.417 270.563 828.28 270.095 828.018 269.697C827.756 269.298 827.38 268.988 826.939 268.805C826.498 268.623 826.013 268.578 825.546 268.675C825.079 268.772 824.652 269.007 824.32 269.35Z" fill="#6C63FF"/>
<path opacity="0.3" d="M823.86 346.58L816.12 351.74C815.848 351.923 815.609 352.149 815.41 352.41L810.6 358.76C810.308 359.136 809.931 359.438 809.5 359.639C809.069 359.841 808.596 359.937 808.12 359.92L806.55 359.84C806.011 359.813 805.49 359.638 805.044 359.335C804.597 359.032 804.243 358.611 804.02 358.12L803.02 355.99C802.797 355.49 802.437 355.062 801.982 354.757C801.527 354.451 800.996 354.28 800.448 354.262C799.901 354.244 799.359 354.381 798.885 354.656C798.412 354.932 798.025 355.335 797.77 355.82L795.77 359.65C795.52 360.12 795.147 360.512 794.691 360.786C794.234 361.059 793.712 361.202 793.18 361.2H783.26C782.606 361.203 781.97 360.985 781.455 360.583C780.94 360.18 780.575 359.615 780.42 358.98L778.04 349.45C777.908 348.919 777.629 348.435 777.236 348.054C776.843 347.674 776.351 347.41 775.816 347.295C775.28 347.179 774.724 347.216 774.208 347.401C773.693 347.585 773.24 347.911 772.9 348.34L758.6 366.42C758.197 366.934 757.632 367.297 756.997 367.452C756.362 367.606 755.694 367.542 755.1 367.27L745.91 363.12C745.429 362.895 744.895 362.805 744.367 362.859C743.839 362.914 743.335 363.111 742.91 363.43L739.62 365.86C739.463 365.977 739.318 366.112 739.19 366.26L730.51 375.87C730.218 376.205 729.854 376.468 729.445 376.642C729.036 376.815 728.593 376.893 728.15 376.87L722.48 376.51C722.171 376.491 721.861 376.518 721.56 376.59L716.45 377.9C715.867 378.052 715.252 378.02 714.688 377.809C714.124 377.598 713.639 377.217 713.3 376.72L712.72 375.86C712.443 375.456 712.069 375.128 711.632 374.906C711.195 374.685 710.71 374.576 710.22 374.59L704.52 374.76C703.862 374.771 703.229 375.011 702.73 375.44L701.33 376.61C700.998 376.888 700.609 377.09 700.191 377.2C699.772 377.31 699.334 377.326 698.909 377.246C698.483 377.167 698.081 376.994 697.73 376.741C697.379 376.487 697.089 376.159 696.88 375.78L695.4 373.1C695.039 372.445 694.442 371.953 693.729 371.724C693.017 371.495 692.245 371.547 691.57 371.87L681.98 376.48L671.37 381.96C671.024 382.138 670.645 382.245 670.257 382.274C669.869 382.303 669.479 382.254 669.11 382.13L660.66 379.33C660.28 379.205 659.879 379.157 659.48 379.19L643.12 380.58C642.565 380.637 642.037 380.848 641.595 381.189C641.154 381.53 640.816 381.988 640.62 382.51L638.25 389.13C638.107 389.528 637.879 389.89 637.583 390.191C637.287 390.493 636.929 390.727 636.533 390.877C636.138 391.027 635.715 391.09 635.293 391.061C634.872 391.032 634.461 390.912 634.09 390.71L633.99 390.66C633.383 390.323 632.675 390.215 631.994 390.354C631.314 390.493 630.706 390.871 630.28 391.42L628.42 393.8C627.926 394.42 627.207 394.819 626.42 394.91L621.3 395.46C621.011 395.489 620.728 395.56 620.46 395.67L612.35 399.14C611.985 399.29 611.595 399.368 611.2 399.37H607.3C606.823 399.37 606.353 399.253 605.931 399.03C605.51 398.807 605.149 398.484 604.88 398.09L604.32 397.27C603.969 396.757 603.464 396.37 602.878 396.163C602.292 395.956 601.655 395.941 601.06 396.12L591.97 398.87C591.346 399.058 590.678 399.033 590.07 398.8L585.85 397.18C585.531 397.054 585.193 396.987 584.85 396.98H575.79C575.397 396.979 575.009 397.061 574.65 397.22L565.65 401.04C565.018 401.313 564.309 401.352 563.65 401.15L559.2 399.82C558.767 399.691 558.309 399.663 557.864 399.739C557.418 399.816 556.996 399.994 556.63 400.26L554.68 401.69C554.09 402.122 553.359 402.317 552.632 402.238C551.904 402.158 551.233 401.809 550.75 401.26L550.46 400.93C550.067 400.481 549.546 400.163 548.967 400.018C548.388 399.873 547.778 399.909 547.22 400.12L539.97 402.89C539.324 403.125 538.616 403.125 537.97 402.89L534.79 401.75C534.209 401.549 533.581 401.532 532.99 401.7L529.99 402.57C529.333 402.759 528.631 402.713 528.004 402.439C527.378 402.165 526.867 401.681 526.56 401.07L525.44 398.82C525.196 398.334 524.822 397.925 524.359 397.639C523.897 397.353 523.364 397.201 522.82 397.2H520.22C519.88 397.206 519.541 397.152 519.22 397.04L509.13 393.5C508.767 393.37 508.383 393.314 507.998 393.335C507.613 393.355 507.237 393.452 506.89 393.62L499.52 397.16C499.123 397.348 498.689 397.447 498.25 397.45H488.94C488.545 397.452 488.155 397.53 487.79 397.68L485.89 398.5C485.296 398.752 484.635 398.802 484.009 398.641C483.384 398.48 482.829 398.118 482.43 397.61C482.157 397.258 481.807 396.973 481.406 396.777C481.006 396.581 480.566 396.48 480.12 396.48H475.42C474.742 396.479 474.085 396.712 473.56 397.14L470.83 399.38C470.269 399.845 469.554 400.082 468.826 400.045C468.098 400.008 467.411 399.699 466.9 399.18L466.28 398.56C465.879 398.157 465.37 397.879 464.815 397.76C464.259 397.641 463.68 397.686 463.15 397.89L460.43 398.94C459.686 399.217 458.863 399.189 458.14 398.86L448.57 394.42C448.401 394.339 448.223 394.279 448.04 394.24L440.53 392.39C439.938 392.242 439.314 392.284 438.747 392.51C438.18 392.736 437.698 393.135 437.37 393.65L432.65 401.01C432.469 401.293 432.338 401.604 432.26 401.93L430.83 408.18C430.659 408.894 430.232 409.52 429.63 409.94L426.51 412.08C426.13 412.342 425.694 412.509 425.236 412.568C424.779 412.627 424.314 412.577 423.88 412.42L417.46 410.14C416.789 409.903 416.054 409.918 415.394 410.183C414.733 410.448 414.191 410.945 413.87 411.58L410.49 417.9C410.268 418.326 410.151 418.799 410.15 419.28V422.13C410.147 422.77 409.936 423.392 409.548 423.901C409.16 424.41 408.616 424.778 408 424.95L402.38 426.51C401.784 426.679 401.149 426.651 400.57 426.43L395.67 424.58C395.256 424.421 394.811 424.359 394.37 424.4L385.92 425.17C385.47 425.214 385.015 425.151 384.594 424.988C384.172 424.825 383.794 424.565 383.49 424.23L382.49 423.12C382.074 422.653 381.515 422.337 380.9 422.22L377.05 421.44C376.656 421.365 376.252 421.37 375.86 421.454C375.469 421.539 375.098 421.7 374.77 421.93L369.7 425.54C369.246 425.859 368.713 426.046 368.16 426.08L360.39 426.49C360.096 426.508 359.807 426.569 359.53 426.67L346.04 431.67C345.662 431.813 345.258 431.875 344.855 431.851C344.452 431.827 344.058 431.717 343.7 431.53L339.8 429.53C339.388 429.32 338.932 429.21 338.47 429.21H323.97C323.3 429.21 322.651 428.981 322.13 428.56L318.62 425.75C318.123 425.352 317.509 425.126 316.872 425.108C316.235 425.09 315.609 425.281 315.09 425.65L311.33 428.33C310.95 428.602 310.64 428.961 310.426 429.376C310.212 429.792 310.1 430.253 310.1 430.72V458.83C310.1 459.607 310.409 460.352 310.958 460.902C311.508 461.451 312.253 461.76 313.03 461.76H825.62C826.397 461.76 827.142 461.451 827.692 460.902C828.241 460.352 828.55 459.607 828.55 458.83L828.41 349.06C828.417 348.527 828.279 348.002 828.009 347.542C827.74 347.082 827.351 346.704 826.882 346.449C826.414 346.193 825.886 346.071 825.353 346.094C824.82 346.117 824.304 346.285 823.86 346.58Z" fill="#6C63FF"/>
<path d="M825.93 352.84C829.796 352.84 832.93 349.706 832.93 345.84C832.93 341.974 829.796 338.84 825.93 338.84C822.064 338.84 818.93 341.974 818.93 345.84C818.93 349.706 822.064 352.84 825.93 352.84Z" fill="#6C63FF"/>
<path opacity="0.3" d="M825.48 415.09L815.97 418.26C815.788 418.323 815.613 418.407 815.45 418.51L810.23 421.96C809.85 422.208 809.403 422.334 808.95 422.32L805.7 422.24C805.398 422.234 805.1 422.166 804.825 422.04C804.549 421.915 804.303 421.734 804.1 421.51L802.1 419.31C801.901 419.09 801.661 418.912 801.392 418.787C801.124 418.661 800.833 418.59 800.537 418.578C800.241 418.566 799.946 418.613 799.668 418.716C799.39 418.819 799.136 418.977 798.92 419.18L795.55 422.34C795.141 422.731 794.596 422.95 794.03 422.95H782.35C781.934 422.953 781.525 422.838 781.171 422.618C780.817 422.399 780.533 422.084 780.35 421.71L777.68 416.38C777.541 416.102 777.345 415.856 777.105 415.658C776.865 415.46 776.586 415.315 776.287 415.231C775.988 415.147 775.674 415.127 775.366 415.172C775.058 415.216 774.763 415.325 774.5 415.49L757.97 425.96C757.47 426.273 756.866 426.377 756.29 426.25L744.97 423.7C744.551 423.601 744.113 423.629 743.71 423.78L739.58 425.31C739.471 425.344 739.367 425.391 739.27 425.45L730.14 430.51C729.788 430.702 729.391 430.799 728.99 430.79L722.23 430.57C722.114 430.56 721.996 430.56 721.88 430.57L715.38 431.4C714.814 431.469 714.243 431.323 713.78 430.99L712.46 429.99C712.07 429.702 711.595 429.551 711.11 429.56L703.98 429.66C703.695 429.66 703.412 429.718 703.15 429.83L699.95 431.18C699.558 431.342 699.128 431.39 698.711 431.317C698.293 431.244 697.904 431.055 697.59 430.77L694.97 428.45C694.703 428.209 694.381 428.037 694.033 427.948C693.684 427.86 693.32 427.857 692.97 427.94L682.03 430.58L670.78 433.49C670.477 433.555 670.163 433.555 669.86 433.49L660.36 431.91C660.207 431.9 660.053 431.9 659.9 431.91L642.33 432.7C641.993 432.715 641.664 432.806 641.368 432.968C641.071 433.129 640.816 433.355 640.62 433.63L637.97 437.28C637.705 437.651 637.333 437.931 636.904 438.083C636.475 438.235 636.009 438.252 635.57 438.13L632.74 437.35C632.438 437.271 632.124 437.255 631.816 437.303C631.508 437.351 631.213 437.462 630.95 437.63L628.12 439.44C627.794 439.642 627.423 439.759 627.04 439.78L621.04 440.11C620.927 440.1 620.813 440.1 620.7 440.11L612.04 441.96C611.885 441.991 611.728 442.008 611.57 442.01H606.49C606.019 442.01 605.56 441.859 605.18 441.58L603.86 440.58C603.627 440.406 603.363 440.281 603.081 440.21C602.8 440.14 602.507 440.126 602.22 440.17L591.41 441.79C591.162 441.83 590.908 441.83 590.66 441.79L585.58 440.79C585.44 440.775 585.3 440.775 585.16 440.79H575.41C575.257 440.775 575.103 440.775 574.95 440.79L565.06 442.89C564.796 442.94 564.524 442.94 564.26 442.89L558.37 442C557.999 441.949 557.621 441.991 557.27 442.12L553.49 443.5C553.186 443.614 552.86 443.658 552.537 443.63C552.214 443.603 551.9 443.504 551.62 443.34L549.83 442.34C549.375 442.072 548.838 441.979 548.32 442.08L539.32 443.79C539.052 443.84 538.778 443.84 538.51 443.79L534.18 443.02C533.945 442.985 533.705 442.985 533.47 443.02L528.69 443.71C528.348 443.762 527.999 443.733 527.671 443.626C527.343 443.518 527.044 443.335 526.8 443.09L525.22 441.58C524.797 441.167 524.231 440.934 523.64 440.93H519.85C519.724 440.94 519.596 440.94 519.47 440.93L508.41 438.99C508.11 438.925 507.8 438.925 507.5 438.99L499.14 440.99C498.97 441.03 498.795 441.05 498.62 441.05H488.55C488.397 441.035 488.243 441.035 488.09 441.05L484.68 441.78C484.106 441.939 483.492 441.868 482.97 441.58L482.03 440.97C481.671 440.742 481.255 440.62 480.83 440.62H474.74C474.452 440.621 474.166 440.679 473.9 440.79L469.64 442.53C469.347 442.653 469.03 442.71 468.712 442.698C468.395 442.686 468.083 442.605 467.8 442.46L465.54 441.32C465.101 441.1 464.602 441.03 464.12 441.12L459.66 441.98C459.357 442.045 459.043 442.045 458.74 441.98L448.4 439.58H448.17L439.38 438.49C438.794 438.424 438.206 438.589 437.74 438.95L432.74 442.83C432.46 443.047 432.237 443.328 432.09 443.65L430.97 446.14C430.843 446.414 430.663 446.659 430.44 446.862C430.217 447.065 429.955 447.22 429.67 447.32L425.83 448.63C425.475 448.759 425.091 448.79 424.72 448.72L416.18 447.2C415.839 447.141 415.489 447.162 415.158 447.261C414.827 447.36 414.523 447.534 414.27 447.77L410.88 450.94C410.658 451.149 410.481 451.402 410.36 451.682C410.24 451.963 410.178 452.265 410.18 452.57C410.18 453.107 409.986 453.626 409.633 454.03C409.28 454.435 408.792 454.697 408.26 454.77L401.85 455.66C401.612 455.7 401.368 455.7 401.13 455.66L395.33 454.56C395.157 454.54 394.983 454.54 394.81 454.56L385.12 455C384.713 455.016 384.309 454.922 383.95 454.73L382.25 453.8C381.989 453.651 381.699 453.559 381.4 453.53L376.31 453.02C375.972 452.985 375.63 453.026 375.31 453.14L369.31 455.27C369.088 455.349 368.855 455.393 368.62 455.4L360.09 455.63C359.974 455.62 359.856 455.62 359.74 455.63L345.29 458.3C344.977 458.365 344.653 458.365 344.34 458.3L339.42 457.04C339.236 456.996 339.049 456.973 338.86 456.97H323.35C323.065 456.973 322.783 456.918 322.52 456.81L317.66 454.87C317.151 454.675 316.589 454.675 316.08 454.87L311.56 456.48C311.127 456.632 310.752 456.914 310.486 457.289C310.221 457.663 310.079 458.111 310.08 458.57V459.57C310.079 459.862 310.135 460.152 310.246 460.423C310.357 460.693 310.52 460.939 310.727 461.146C310.933 461.353 311.178 461.518 311.448 461.63C311.718 461.742 312.008 461.8 312.3 461.8H826.3C826.592 461.8 826.882 461.742 827.152 461.63C827.422 461.518 827.667 461.353 827.873 461.146C828.08 460.939 828.243 460.693 828.354 460.423C828.465 460.152 828.521 459.862 828.52 459.57L828.39 417.3C828.404 416.942 828.331 416.585 828.178 416.261C828.025 415.937 827.796 415.654 827.51 415.437C827.225 415.22 826.891 415.076 826.538 415.015C826.184 414.955 825.821 414.98 825.48 415.09Z" fill="#6C63FF"/>
<path d="M440.93 399.84C444.796 399.84 447.93 396.706 447.93 392.84C447.93 388.974 444.796 385.84 440.93 385.84C437.064 385.84 433.93 388.974 433.93 392.84C433.93 396.706 437.064 399.84 440.93 399.84Z" fill="#6C63FF"/>
<path d="M776.93 355.84C780.796 355.84 783.93 352.706 783.93 348.84C783.93 344.974 780.796 341.84 776.93 341.84C773.064 341.84 769.93 344.974 769.93 348.84C769.93 352.706 773.064 355.84 776.93 355.84Z" fill="#6C63FF"/>
<path d="M602.93 402.84C606.796 402.84 609.93 399.706 609.93 395.84C609.93 391.974 606.796 388.84 602.93 388.84C599.064 388.84 595.93 391.974 595.93 395.84C595.93 399.706 599.064 402.84 602.93 402.84Z" fill="#6C63FF"/>
<path d="M693.93 377.84C697.796 377.84 700.93 374.706 700.93 370.84C700.93 366.974 697.796 363.84 693.93 363.84C690.064 363.84 686.93 366.974 686.93 370.84C686.93 374.706 690.064 377.84 693.93 377.84Z" fill="#6C63FF"/>
<path d="M829.41 349C829.408 348.471 829.263 347.953 828.99 347.5C828.717 347.047 828.327 346.676 827.86 346.427C827.394 346.178 826.869 346.06 826.34 346.085C825.812 346.11 825.301 346.278 824.86 346.57L817.12 351.73C816.848 351.913 816.609 352.139 816.41 352.4L811.6 358.75C811.308 359.126 810.931 359.428 810.5 359.629C810.069 359.831 809.596 359.927 809.12 359.91L807.55 359.83C807.011 359.803 806.49 359.628 806.044 359.325C805.597 359.022 805.243 358.601 805.02 358.11L804.02 355.98C803.797 355.48 803.437 355.052 802.982 354.747C802.527 354.441 801.996 354.27 801.448 354.252C800.901 354.234 800.359 354.371 799.885 354.646C799.412 354.922 799.025 355.325 798.77 355.81L796.77 359.64C796.52 360.11 796.147 360.502 795.691 360.776C795.234 361.049 794.712 361.192 794.18 361.19H784.26C783.606 361.193 782.97 360.975 782.455 360.573C781.94 360.17 781.575 359.605 781.42 358.97L779.04 349.44C778.908 348.909 778.629 348.425 778.236 348.045C777.843 347.664 777.351 347.4 776.816 347.285C776.28 347.169 775.724 347.206 775.208 347.391C774.693 347.575 774.24 347.901 773.9 348.33L759.6 366.41C759.197 366.924 758.632 367.287 757.997 367.442C757.362 367.596 756.694 367.532 756.1 367.26L746.91 363.11C746.429 362.885 745.895 362.795 745.367 362.849C744.839 362.904 744.335 363.101 743.91 363.42L740.62 365.85C740.463 365.967 740.318 366.102 740.19 366.25L731.51 375.86C731.218 376.195 730.854 376.459 730.445 376.632C730.036 376.805 729.593 376.883 729.15 376.86L723.48 376.5C723.171 376.481 722.861 376.508 722.56 376.58L717.45 377.89C716.867 378.042 716.252 378.01 715.688 377.799C715.124 377.588 714.639 377.207 714.3 376.71L713.72 375.85C713.443 375.446 713.069 375.118 712.632 374.897C712.195 374.675 711.71 374.566 711.22 374.58L705.52 374.75C704.862 374.761 704.229 375.001 703.73 375.43L702.33 376.6C701.998 376.878 701.609 377.08 701.191 377.19C700.772 377.3 700.334 377.316 699.909 377.236C699.483 377.157 699.081 376.984 698.73 376.731C698.379 376.477 698.089 376.149 697.88 375.77L696.4 373.09C696.039 372.435 695.442 371.943 694.729 371.714C694.017 371.485 693.245 371.537 692.57 371.86L682.98 376.47L672.37 381.95C672.024 382.128 671.645 382.235 671.257 382.264C670.869 382.293 670.479 382.244 670.11 382.12L661.66 379.32C661.28 379.195 660.879 379.148 660.48 379.18L644.12 380.58C643.565 380.637 643.037 380.848 642.595 381.189C642.154 381.53 641.816 381.988 641.62 382.51L639.25 389.13C639.107 389.528 638.879 389.89 638.583 390.191C638.287 390.493 637.929 390.727 637.533 390.877C637.138 391.027 636.715 391.09 636.293 391.061C635.872 391.032 635.461 390.912 635.09 390.71L634.99 390.66C634.383 390.323 633.675 390.215 632.994 390.354C632.314 390.493 631.706 390.871 631.28 391.42L629.42 393.8C628.926 394.42 628.207 394.819 627.42 394.91L622.3 395.46C622.011 395.489 621.728 395.56 621.46 395.67L613.35 399.14C612.985 399.29 612.595 399.368 612.2 399.37H608.3C607.823 399.37 607.353 399.253 606.931 399.03C606.51 398.807 606.149 398.484 605.88 398.09L605.32 397.27C604.969 396.757 604.464 396.37 603.878 396.163C603.292 395.956 602.655 395.941 602.06 396.12L592.97 398.87C592.346 399.058 591.678 399.033 591.07 398.8L586.85 397.18C586.531 397.054 586.193 396.987 585.85 396.98H576.79C576.397 396.979 576.009 397.061 575.65 397.22L566.65 401.04C566.018 401.313 565.309 401.352 564.65 401.15L560.2 399.82C559.767 399.691 559.309 399.663 558.864 399.74C558.418 399.816 557.996 399.994 557.63 400.26L555.68 401.69C555.09 402.122 554.359 402.317 553.632 402.238C552.904 402.158 552.233 401.809 551.75 401.26L551.46 400.93C551.067 400.481 550.546 400.163 549.967 400.018C549.388 399.873 548.778 399.909 548.22 400.12L540.97 402.89C540.324 403.125 539.616 403.125 538.97 402.89L535.79 401.75C535.209 401.549 534.581 401.532 533.99 401.7L530.99 402.57C530.333 402.759 529.631 402.713 529.004 402.439C528.378 402.165 527.867 401.681 527.56 401.07L526.44 398.82C526.196 398.334 525.822 397.925 525.359 397.639C524.897 397.353 524.364 397.201 523.82 397.2H521.22C520.88 397.206 520.541 397.152 520.22 397.04L510.13 393.5C509.767 393.37 509.383 393.314 508.998 393.335C508.613 393.355 508.237 393.452 507.89 393.62L500.52 397.16C500.123 397.348 499.689 397.448 499.25 397.45H489.94C489.545 397.452 489.155 397.53 488.79 397.68L486.89 398.5C486.296 398.752 485.635 398.802 485.009 398.641C484.384 398.48 483.829 398.118 483.43 397.61C483.157 397.258 482.807 396.973 482.406 396.777C482.006 396.581 481.566 396.48 481.12 396.48H476.42C475.742 396.479 475.085 396.712 474.56 397.14L471.83 399.38C471.269 399.845 470.554 400.082 469.826 400.045C469.098 400.008 468.411 399.699 467.9 399.18L467.28 398.56C466.879 398.157 466.37 397.879 465.815 397.76C465.259 397.641 464.68 397.686 464.15 397.89L461.43 398.94C460.686 399.217 459.863 399.189 459.14 398.86L449.57 394.42C449.401 394.339 449.223 394.279 449.04 394.24L441.53 392.39C440.938 392.242 440.314 392.284 439.747 392.51C439.18 392.736 438.698 393.135 438.37 393.65L433.65 401.01C433.469 401.293 433.338 401.604 433.26 401.93L431.83 408.18C431.659 408.894 431.232 409.52 430.63 409.94L427.51 412.08C427.13 412.342 426.694 412.509 426.236 412.568C425.779 412.627 425.314 412.577 424.88 412.42L418.46 410.14C417.789 409.903 417.054 409.918 416.394 410.183C415.733 410.448 415.191 410.945 414.87 411.58L411.49 417.9C411.268 418.326 411.151 418.799 411.15 419.28V422.13C411.147 422.77 410.936 423.392 410.548 423.901C410.16 424.41 409.616 424.778 409 424.95L403.38 426.51C402.784 426.679 402.149 426.651 401.57 426.43L396.67 424.58C396.256 424.421 395.811 424.359 395.37 424.4L386.92 425.17C386.47 425.214 386.015 425.151 385.594 424.988C385.172 424.825 384.794 424.565 384.49 424.23L383.49 423.12C383.074 422.653 382.515 422.337 381.9 422.22L378.05 421.44C377.656 421.365 377.252 421.37 376.86 421.454C376.469 421.539 376.098 421.7 375.77 421.93L370.7 425.54C370.246 425.859 369.713 426.046 369.16 426.08L361.39 426.49C361.096 426.508 360.807 426.569 360.53 426.67L347.04 431.67C346.662 431.813 346.258 431.875 345.855 431.851C345.452 431.827 345.058 431.717 344.7 431.53L340.8 429.53C340.388 429.32 339.932 429.21 339.47 429.21H324.97C324.3 429.21 323.651 428.981 323.13 428.56L319.62 425.75C319.123 425.352 318.509 425.126 317.872 425.108C317.235 425.09 316.609 425.281 316.09 425.65L312.33 428.33C311.95 428.602 311.64 428.961 311.426 429.376C311.212 429.792 311.1 430.253 311.1 430.72" stroke="#6C63FF" stroke-miterlimit="10"/>
<path opacity="0.2" d="M865.93 502.79H280.93V502.89H865.93V502.79Z" fill="#F2F2F2"/>
<path opacity="0.3" d="M370.93 507.84C373.691 507.84 375.93 505.601 375.93 502.84C375.93 500.079 373.691 497.84 370.93 497.84C368.169 497.84 365.93 500.079 365.93 502.84C365.93 505.601 368.169 507.84 370.93 507.84Z" fill="#575A88"/>
<path opacity="0.3" d="M443.93 507.84C446.691 507.84 448.93 505.601 448.93 502.84C448.93 500.079 446.691 497.84 443.93 497.84C441.169 497.84 438.93 500.079 438.93 502.84C438.93 505.601 441.169 507.84 443.93 507.84Z" fill="#575A88"/>
<path opacity="0.3" d="M516.93 507.84C519.691 507.84 521.93 505.601 521.93 502.84C521.93 500.079 519.691 497.84 516.93 497.84C514.169 497.84 511.93 500.079 511.93 502.84C511.93 505.601 514.169 507.84 516.93 507.84Z" fill="#575A88"/>
<path opacity="0.3" d="M589.93 507.84C592.691 507.84 594.93 505.601 594.93 502.84C594.93 500.079 592.691 497.84 589.93 497.84C587.169 497.84 584.93 500.079 584.93 502.84C584.93 505.601 587.169 507.84 589.93 507.84Z" fill="#575A88"/>
<path opacity="0.3" d="M662.93 507.84C665.691 507.84 667.93 505.601 667.93 502.84C667.93 500.079 665.691 497.84 662.93 497.84C660.169 497.84 657.93 500.079 657.93 502.84C657.93 505.601 660.169 507.84 662.93 507.84Z" fill="#575A88"/>
<path opacity="0.3" d="M735.93 507.84C738.691 507.84 740.93 505.601 740.93 502.84C740.93 500.079 738.691 497.84 735.93 497.84C733.169 497.84 730.93 500.079 730.93 502.84C730.93 505.601 733.169 507.84 735.93 507.84Z" fill="#575A88"/>
<path opacity="0.3" d="M808.93 507.84C811.691 507.84 813.93 505.601 813.93 502.84C813.93 500.079 811.691 497.84 808.93 497.84C806.169 497.84 803.93 500.079 803.93 502.84C803.93 505.601 806.169 507.84 808.93 507.84Z" fill="#575A88"/>
<path d="M239.7 695.66C236.7 690.15 240.1 683.4 243.99 678.49C247.88 673.58 252.6 668.49 252.5 662.2C252.35 653.2 242.8 647.88 235.17 643.11C229.503 639.567 224.28 635.361 219.61 630.58C217.656 628.742 216.038 626.576 214.83 624.18C213.25 620.66 213.29 616.66 213.39 612.81C213.73 599.957 214.367 587.127 215.3 574.32" stroke="#2F2E41" stroke-width="4" stroke-miterlimit="10"/>
<path d="M200.79 573.64C200.896 571.289 201.593 569.003 202.817 566.993C204.04 564.983 205.751 563.314 207.79 562.14L210.93 568.35L210.83 560.83C212.332 560.39 213.896 560.201 215.46 560.27C218.222 560.407 220.882 561.359 223.103 563.006C225.325 564.653 227.009 566.921 227.944 569.524C228.878 572.126 229.02 574.948 228.353 577.631C227.685 580.315 226.238 582.741 224.193 584.603C222.149 586.466 219.599 587.68 216.864 588.095C214.13 588.509 211.334 588.104 208.83 586.932C206.325 585.759 204.224 583.871 202.791 581.505C201.359 579.14 200.659 576.403 200.78 573.64H200.79Z" fill="#57B894"/>
<path d="M225.82 668.63C227.292 671.483 229.7 673.744 232.641 675.033C235.582 676.322 238.876 676.561 241.972 675.71C245.068 674.859 247.777 672.97 249.646 670.359C251.515 667.749 252.429 664.575 252.236 661.37C252.043 658.165 250.755 655.124 248.587 652.756C246.418 650.388 243.502 648.837 240.326 648.364C237.15 647.89 233.909 648.523 231.144 650.155C228.379 651.788 226.259 654.321 225.14 657.33L233.91 664.46L224.26 662.23C224.264 664.457 224.798 666.651 225.82 668.63Z" fill="#57B894"/>
<path d="M232.75 641.38C236.237 641.626 239.69 640.559 242.43 638.388C245.17 636.217 246.999 633.1 247.557 629.649C248.115 626.198 247.361 622.663 245.445 619.739C243.528 616.816 240.587 614.715 237.2 613.85L237.28 619.63L234.1 613.34C232.259 613.25 230.418 613.524 228.682 614.148C226.947 614.771 225.353 615.731 223.99 616.972C222.627 618.214 221.522 619.712 220.74 621.381C219.957 623.051 219.512 624.858 219.43 626.7C219.348 628.319 219.551 629.941 220.03 631.49C220.873 634.248 222.548 636.678 224.825 638.448C227.101 640.219 229.869 641.242 232.75 641.38V641.38Z" fill="#57B894"/>
<path d="M198.68 618.71C200.834 618.789 202.978 618.37 204.943 617.484C206.909 616.599 208.644 615.272 210.012 613.606C211.381 611.94 212.346 609.981 212.833 607.881C213.319 605.781 213.315 603.597 212.819 601.499C212.323 599.401 211.349 597.446 209.973 595.786C208.598 594.126 206.857 592.806 204.888 591.93C202.918 591.053 200.773 590.643 198.619 590.731C196.465 590.82 194.361 591.405 192.47 592.44L194.95 599.24L189.85 594.34C187.117 596.843 185.488 600.328 185.32 604.03C185.253 605.33 185.371 606.633 185.67 607.9C186.37 610.87 188.019 613.532 190.366 615.482C192.713 617.432 195.632 618.566 198.68 618.71V618.71Z" fill="#57B894"/>
<path opacity="0.1" d="M202.68 577.38C205.92 577.73 209.07 578.74 212.32 578.94C215.57 579.14 219.14 578.36 221.2 575.84C222.3 574.48 222.86 572.75 223.79 571.27C224.678 569.886 225.894 568.742 227.33 567.94C228.177 569.71 228.642 571.638 228.696 573.6C228.749 575.561 228.39 577.512 227.641 579.326C226.892 581.139 225.77 582.775 224.348 584.127C222.926 585.479 221.236 586.518 219.387 587.174C217.538 587.831 215.571 588.092 213.615 587.94C211.659 587.787 209.756 587.226 208.031 586.291C206.306 585.356 204.796 584.069 203.601 582.513C202.405 580.957 201.549 579.168 201.09 577.26C201.623 577.28 202.153 577.32 202.68 577.38Z" fill="black"/>
<path opacity="0.1" d="M198.68 618.71C201.101 618.833 203.511 618.325 205.677 617.237C207.842 616.148 209.688 614.516 211.034 612.501C212.379 610.485 213.178 608.154 213.353 605.737C213.528 603.32 213.072 600.898 212.03 598.71C210.916 599.459 209.959 600.416 209.21 601.53C208.21 603.04 207.6 604.78 206.43 606.17C204.24 608.74 200.51 609.58 197.12 609.43C193.73 609.28 190.46 608.31 187.12 608C186.65 608 186.18 607.93 185.7 607.92C186.403 610.882 188.048 613.536 190.389 615.481C192.73 617.427 195.64 618.56 198.68 618.71V618.71Z" fill="black"/>
<path opacity="0.1" d="M232.75 641.38C235.153 641.505 237.548 641.008 239.703 639.938C241.859 638.868 243.702 637.26 245.055 635.27C246.407 633.28 247.225 630.974 247.427 628.576C247.629 626.178 247.21 623.769 246.21 621.58C245.046 622.34 244.029 623.306 243.21 624.43C242.12 625.97 241.44 627.74 240.21 629.16C237.84 631.8 233.86 632.73 230.28 632.64C226.7 632.55 223.45 631.72 220 631.45C220.838 634.22 222.514 636.662 224.798 638.44C227.081 640.219 229.859 641.246 232.75 641.38V641.38Z" fill="black"/>
<path opacity="0.1" d="M225.82 668.63C227.338 672.023 230.143 674.675 233.616 676.001C237.089 677.326 240.947 677.218 244.34 675.7C247.733 674.182 250.385 671.377 251.711 667.904C253.037 664.431 252.928 660.573 251.41 657.18C250.252 657.934 249.214 658.858 248.33 659.92C246.99 661.55 246.11 663.4 244.57 664.92C241.7 667.74 237.07 668.92 232.94 669.01C230.561 669.02 228.184 668.893 225.82 668.63V668.63Z" fill="black"/>
<path d="M260.87 689.32C260.87 689.32 249.79 688.98 246.45 686.6C243.11 684.22 229.45 681.39 228.59 685.2C227.73 689.01 211.94 704.2 224.44 704.26C236.94 704.32 253.5 702.31 256.84 700.26C260.18 698.21 260.87 689.32 260.87 689.32Z" fill="#575A88"/>
<path opacity="0.2" d="M224.22 702.93C236.73 703.03 253.28 700.99 256.61 698.93C259.15 697.38 260.16 691.83 260.5 689.28H260.87C260.87 689.28 260.17 698.21 256.87 700.28C253.57 702.35 236.98 704.36 224.47 704.28C220.86 704.28 219.62 702.97 219.69 701.07C220.16 702.19 221.53 702.91 224.22 702.93Z" fill="black"/>
<path d="M912.4 544.245C911.672 546.333 911.396 548.552 911.59 550.755C912.076 552.955 913.108 554.998 914.59 556.695C915.333 557.878 916.487 558.743 917.83 559.125C918.526 559.19 919.227 559.063 919.856 558.758C920.486 558.453 921.02 557.982 921.4 557.395C922.151 556.212 922.597 554.862 922.7 553.465C922.981 549.743 922.797 546.001 922.15 542.325C921.73 539.235 921.62 535.835 920.8 532.845C918.68 532.845 916.23 532.455 915.05 534.475C913.54 537.105 913.18 541.305 912.4 544.245Z" fill="#FFC0C6"/>
<path d="M924 489.195C923.48 490.665 922.75 492.065 922.27 493.555C921.811 495.106 921.477 496.691 921.27 498.295C919.785 507.712 917.782 517.039 915.27 526.235C914.376 528.937 913.871 531.751 913.77 534.595L919.49 534.395C920.028 534.309 920.578 534.431 921.03 534.735C921.52 535.175 921.85 536.145 922.47 535.895C923.542 530.4 924.294 524.847 924.72 519.265C924.95 515.265 924.84 511.345 925.1 507.395C925.6 499.525 927.94 490.555 924.88 482.945C924.994 485.066 924.695 487.188 924 489.195V489.195Z" fill="#3F3D56"/>
<path opacity="0.1" d="M924 489.195C923.48 490.665 922.75 492.065 922.27 493.555C921.811 495.106 921.477 496.691 921.27 498.295C919.785 507.712 917.782 517.039 915.27 526.235C914.376 528.937 913.871 531.751 913.77 534.595L919.49 534.395C920.028 534.309 920.578 534.431 921.03 534.735C921.52 535.175 921.85 536.145 922.47 535.895C923.542 530.4 924.294 524.847 924.72 519.265C924.95 515.265 924.84 511.345 925.1 507.395C925.6 499.525 927.94 490.555 924.88 482.945C924.994 485.066 924.695 487.188 924 489.195Z" fill="#6C63FF"/>
<path d="M931.11 442.055C929.71 443.255 929.23 445.175 928.82 446.975L925.5 461.595C924.74 464.935 923.98 468.275 923.5 471.665C921.4 485.825 923.83 500.385 921.5 514.505C920.826 517.652 920.378 520.844 920.16 524.055C920.06 529.935 922.33 535.785 921.39 541.585C921.074 542.615 921.074 543.715 921.39 544.745C921.87 545.745 923.49 546.065 923.94 545.095C924.02 544.918 924.071 544.729 924.09 544.535L927.55 522.705C928.38 517.515 929.2 512.245 928.63 507.015C928.24 503.455 927.2 499.895 927.77 496.355C928.146 494.601 928.657 492.879 929.3 491.205C932.64 481.205 932.18 470.335 930.3 459.995C929.92 458.493 929.812 456.935 929.98 455.395C930.44 452.865 932.4 450.925 933.72 448.725C934.72 447.065 936.44 443.415 935.72 441.415C934.98 439.075 932.52 440.845 931.11 442.055Z" fill="#6C63FF"/>
<path d="M936.65 653.435C936.19 653.386 935.725 653.47 935.31 653.675C934.96 653.93 934.687 654.276 934.52 654.675C933.41 656.965 932.63 659.615 930.52 661.095C929.458 661.759 928.292 662.239 927.07 662.515L917.67 665.195C916.46 665.535 915.08 666.035 914.67 667.195C914.26 668.355 915.14 669.775 916.27 670.455C917.951 671.256 919.813 671.6 921.67 671.455L935.28 671.655C936.573 671.747 937.872 671.615 939.12 671.265C940.71 670.705 942.05 669.435 943.72 669.265C945.08 669.115 946.39 669.705 947.72 670.005C950.49 670.615 953.36 670.005 956.11 669.305C956.609 669.236 957.075 669.012 957.44 668.665C957.739 668.232 957.883 667.71 957.85 667.185C957.96 664.855 958 662.535 957.99 660.185C957.99 658.075 957.74 655.625 955.99 654.465C955.184 654.004 954.286 653.727 953.36 653.655C947.78 652.945 942.27 653.475 936.65 653.435Z" fill="#575A88"/>
<path d="M972.66 683.045C972.276 683.954 971.789 684.816 971.21 685.615L965.48 694.295C963.14 697.825 960.72 701.605 960.56 705.835C964.379 707.306 968.481 707.897 972.56 707.565C974.602 707.513 976.59 706.893 978.3 705.775C980.76 703.965 981.73 700.775 982.53 697.855C982.587 697.466 982.782 697.111 983.08 696.855C983.59 696.505 984.28 696.855 984.9 696.725C986.17 696.565 986.61 694.965 986.7 693.725C986.953 689.771 986.616 685.8 985.7 681.945C985.63 681.464 985.418 681.014 985.09 680.655C984.709 680.37 984.254 680.2 983.78 680.165C980.92 679.675 978.06 679.105 975.19 678.685C971.4 678.075 973.73 680.315 972.66 683.045Z" fill="#575A88"/>
<path d="M925.34 528.375C922.57 531.895 921.68 536.595 921.89 541.065C922.1 545.535 923.33 549.895 924.36 554.255C926.05 561.351 927.272 568.55 928.02 575.805C928.138 577.835 928.473 579.847 929.02 581.805C929.51 583.325 930.27 584.745 930.71 586.275C931.25 588.135 931.3 590.115 931.8 591.985C932.475 594.005 933.339 595.957 934.38 597.815C938.95 607.155 939.93 617.815 940.01 628.215C940.01 631.025 940.01 633.825 940.27 636.615C940.85 642.275 942.6 648.615 939.21 653.175C940.07 656.275 944.21 656.865 947.37 656.455C951.084 655.993 954.715 655.017 958.16 653.555C957.16 651.435 955.7 648.965 955.77 646.555C955.981 644.67 956.459 642.825 957.19 641.075C959 635.575 959.19 629.695 959.29 623.905C959.363 622.118 959.337 620.329 959.21 618.545C959.034 616.898 958.766 615.262 958.41 613.645L954.54 594.255C953.861 590.849 953.769 587.352 954.27 583.915C954.998 579.84 956.379 575.91 958.36 572.275C962.99 562.925 964.59 552.385 965.5 541.985C965.99 536.305 966.11 529.985 962.5 525.575C960.268 523.029 957.247 521.304 953.92 520.675C950.622 520.073 947.255 519.942 943.92 520.285C937.23 520.845 929.49 523.115 925.34 528.375Z" fill="#3F3D56"/>
<path d="M926.15 530.865C924.87 535.165 928.05 539.355 929.69 543.535C930.63 545.945 931.1 548.535 932.54 550.725C934.32 553.395 937.38 554.975 939.31 557.545C941.24 560.115 941.8 563.125 943.31 565.795C944.82 568.465 947.31 570.685 948.71 573.465C950.83 577.615 950.52 582.595 952.01 587.015C953.07 590.185 955.06 593.015 955.83 596.285C956.17 597.755 956.26 599.285 956.64 600.725C957.53 604.165 959.97 607.165 960.22 610.725C960.38 613.055 959.6 615.615 960.83 617.595C961.57 618.805 962.91 619.515 963.83 620.595C964.503 621.578 964.987 622.676 965.26 623.835L967.26 630.385C969.19 636.745 969.41 643.315 971.26 649.705C973.11 656.095 974.42 663.005 972.26 669.305C971.39 671.915 969.94 674.595 970.67 677.245C970.981 678.182 971.493 679.04 972.17 679.758C972.847 680.477 973.673 681.039 974.59 681.405C976.435 682.113 978.393 682.482 980.37 682.495C983.02 682.635 985.87 682.495 988.06 681.025C986.985 672.992 986.557 664.886 986.78 656.785C987.03 651.505 987.78 646.245 987.78 640.955C987.669 637.605 987.352 634.266 986.83 630.955C986.232 626.001 985.174 621.113 983.67 616.355C982.832 614.229 982.131 612.051 981.57 609.835C981.25 608.325 981.15 606.775 980.93 605.245C980.71 603.715 980.38 602.245 980.05 600.675L978.71 594.495C978.41 593.135 977.59 591.945 977.53 590.555L977.12 581.555C976.46 566.815 975.82 551.835 979.37 537.555C977.3 531.415 973.81 524.945 967.86 522.375C965.411 521.397 962.797 520.897 960.16 520.905C948.01 520.525 937.13 525.735 926.15 530.865Z" fill="#3F3D56"/>
<path d="M936.803 423.588C937.083 424.209 937.287 424.861 937.412 425.531C937.513 426.403 937.471 427.286 937.285 428.144C936.765 431.061 935.77 433.873 934.341 436.468C942.262 436.122 950.121 434.908 957.777 432.846C955.666 431.711 954.733 429.085 954.903 426.702C955.229 424.327 956.007 422.037 957.196 419.955C957.387 419.543 950.777 418.43 950.211 418.388C947.711 418.215 945.205 418.311 942.704 418.232C941.494 418.208 940.285 418.122 939.084 417.973C937.994 417.822 936.549 417.148 935.495 417.258C932.674 417.568 936.168 422.055 936.803 423.588Z" fill="#FFC0C6"/>
<path d="M936.207 436.452C935.972 438.362 936.282 440.31 936.009 442.21C935.624 444.95 934.13 447.334 933.002 449.847C929.92 456.9 930.183 464.982 930.042 472.738C929.901 481.226 929.234 489.684 928.557 498.142L927.326 513.623C927.11 516.294 926.894 518.985 926.386 521.626C926.118 522.738 925.989 523.882 926.001 525.029C926.16 526.409 926.548 527.748 927.147 528.986C927.707 530.634 928.602 532.133 929.769 533.378C930.364 533.989 931.127 534.385 931.949 534.512C932.771 534.638 933.61 534.487 934.346 534.081L935.455 530.569C935.495 531.974 936.035 533.312 936.968 534.318C937.901 535.323 939.159 535.924 940.492 536C941.45 535.965 942.398 535.791 943.311 535.486L952.004 533.003C953.885 532.555 955.712 531.892 957.455 531.024C961.214 528.917 963.733 524.96 965.086 520.726C966.439 516.492 966.712 511.991 966.872 507.539C967.219 497.261 966.956 486.884 964.889 476.873C964.024 472.669 962.84 468.534 962.126 464.3C961.295 458.587 960.887 452.816 960.904 447.037L960.603 432.733C960.684 430.958 960.399 429.186 959.767 427.539C959.434 426.727 958.866 426.045 958.144 425.592C957.422 425.14 956.582 424.938 955.745 425.017C953.141 425.531 952.531 429.063 951.121 431.427C949.918 433.455 947.898 434.761 945.952 435.997C944.674 436.808 943.076 437.639 941.761 436.888C940.445 436.136 940.455 433.712 939.101 433.089C937.306 432.07 936.367 434.988 936.207 436.452Z" fill="#F2F2F2"/>
<path d="M947.48 440.895C944.86 447.595 943.48 454.705 942.16 461.785C940.77 469.415 939.52 477.245 940.79 484.895C943.19 499.365 954.17 511.055 957.91 525.235C958.56 527.695 958.99 530.235 959.91 532.615C961.34 536.615 963.91 540.015 966.44 543.385C967.8 545.195 969.81 547.225 971.95 546.495C973.54 545.945 974.24 544.135 975.45 542.955C977.14 541.305 979.73 541.015 982.09 541.125C984.45 541.235 986.87 541.665 989.16 541.125C991.45 540.585 993.63 538.535 993.4 536.125C993.25 534.615 992.19 533.385 991.4 532.125C989.1 528.685 988.22 524.505 987.55 520.415C983.7 496.825 985.42 472.575 981.33 449.025C980.82 446.025 980.18 443.025 978.49 440.565C977.658 439.52 976.887 438.428 976.18 437.295C975.54 436.065 975.26 434.635 974.42 433.525C973.22 431.945 971.16 431.355 969.27 430.745C966.699 429.915 964.2 428.875 961.8 427.635C959.98 426.695 957.4 424.095 955.56 425.335C953.72 426.575 952.33 430.905 951.34 432.785C949.901 435.413 948.612 438.121 947.48 440.895Z" fill="#6C63FF"/>
<path d="M955.4 538.385C953.98 538.715 952.47 538.265 951.04 538.585C948.69 539.125 947.34 541.515 946.28 543.675C945.89 544.342 945.648 545.086 945.57 545.855C945.543 546.239 945.639 546.621 945.844 546.947C946.049 547.272 946.352 547.524 946.71 547.665C947.107 547.723 947.511 547.671 947.88 547.514C948.249 547.357 948.567 547.101 948.8 546.775C949.258 546.121 949.796 545.527 950.4 545.005C952.06 543.895 954.32 545.075 955.61 546.595C956.9 548.115 957.87 550.025 959.61 550.935C960.618 551.385 961.698 551.649 962.8 551.715C963.956 551.905 965.134 551.905 966.29 551.715C966.871 551.622 967.422 551.392 967.896 551.044C968.371 550.697 968.756 550.241 969.02 549.715C969.275 549.025 969.387 548.29 969.35 547.555L969.52 537.555C969.589 536.97 969.47 536.378 969.18 535.865C968.83 535.459 968.367 535.166 967.85 535.025C965.99 534.315 961.96 531.905 960.09 533.115C958 534.595 958.4 537.695 955.4 538.385Z" fill="#FFC0C6"/>
<path opacity="0.1" d="M978.09 433.915C975.96 433.665 975.55 444.825 973.4 444.835C972.79 444.835 972.9 442.485 972.4 442.835C971.9 443.185 973.69 450.835 973.4 451.435C972.31 453.685 974.48 444.125 973.4 446.375C971.97 449.315 972.62 450.275 971.88 453.465C970.24 460.465 962.07 465.545 963.73 472.525C965.664 480.163 967.074 487.925 967.95 495.755C968.243 498.254 968.287 500.777 968.08 503.285C967.51 508.725 965.02 513.755 962.51 518.625C960.31 522.885 958.07 527.125 956.28 531.565C955.71 532.645 955.533 533.889 955.78 535.085C956.52 537.335 959.5 537.575 961.78 538.225C966.45 539.555 970.44 544.225 975.18 543.135C977.3 536.695 977.05 529.905 978.9 523.375C980.8 516.685 985.24 510.865 986.68 504.065C987.18 501.253 987.421 498.401 987.4 495.545L988.1 463.995C988.192 462.12 988.128 460.24 987.91 458.375C987.566 456.459 987.061 454.576 986.4 452.745L982.74 441.745C981.78 438.805 981.1 434.275 978.09 433.915Z" fill="black"/>
<path d="M977.456 434.408C975.55 434.159 973.632 434.04 971.713 434.05C971.152 433.945 970.576 434.078 970.098 434.421C969.621 434.765 969.276 435.295 969.132 435.907L966.211 442.591C964.844 445.464 963.763 448.494 962.987 451.628C961.522 458.579 963.148 465.799 964.631 472.731C966.358 480.316 967.617 488.024 968.4 495.8C968.662 498.282 968.7 500.787 968.516 503.278C968.007 508.681 965.783 513.676 963.541 518.512C961.576 522.743 959.575 526.953 957.976 531.363C957.463 532.433 957.305 533.671 957.53 534.858C958.191 537.093 960.852 537.331 962.889 537.977C967.06 539.297 970.624 543.935 974.857 542.853C976.751 536.457 976.528 529.714 978.18 523.229C979.877 516.586 983.843 510.806 985.129 504.053C985.575 501.26 985.791 498.428 985.772 495.592L986.388 464.26C986.479 462.398 986.422 460.53 986.218 458.679C985.918 456.775 985.47 454.905 984.879 453.088L981.61 442.164C980.752 439.264 980.145 434.765 977.456 434.408Z" fill="#6C63FF"/>
<path d="M923.43 418.159V402.291C923.428 399.498 923.996 396.731 925.101 394.15C926.206 391.569 927.826 389.223 929.869 387.247C931.912 385.272 934.338 383.704 937.008 382.635C939.678 381.565 942.54 381.015 945.43 381.015C948.32 381.015 951.182 381.565 953.852 382.635C956.522 383.704 958.948 385.272 960.991 387.247C963.034 389.223 964.654 391.569 965.759 394.15C966.864 396.731 967.432 399.498 967.43 402.291V418.159C967.429 418.916 967.118 419.642 966.563 420.178C966.009 420.713 965.258 421.014 964.475 421.015H926.385C925.602 421.014 924.851 420.713 924.297 420.178C923.742 419.642 923.431 418.916 923.43 418.159V418.159Z" fill="#2F2E41"/>
<path d="M945.43 424.015C954.819 424.015 962.43 416.628 962.43 407.515C962.43 398.402 954.819 391.015 945.43 391.015C936.041 391.015 928.43 398.402 928.43 407.515C928.43 416.628 936.041 424.015 945.43 424.015Z" fill="#FFB7B7"/>
<path d="M925.43 403.663C925.435 398.719 927.363 393.979 930.789 390.483C934.215 386.987 938.86 385.021 943.706 385.015H947.154C952 385.021 956.645 386.987 960.071 390.483C963.497 393.979 965.425 398.719 965.43 403.663V404.015H958.143L955.657 396.913L955.16 404.015H951.394L950.14 400.432L949.889 404.015H925.43V403.663Z" fill="#2F2E41"/>
</g>
<defs>
<clipPath id="clip0">
<rect width="1137.93" height="741.16" fill="white"/>
</clipPath>
</defs>
</svg>
